<?xml version="1.0" encoding="UTF-8"?>
<!-- Generator: visioncortex VTracer 0.6.3 -->
<svg version="1.1" xmlns="http://www.w3.org/2000/svg" width="264" height="458">
<path d="M0 0 C4.1 1.77 6.79 4.67 9.87 7.84 C10.53 8.52 11.2 9.2 11.88 9.89 C20.79 19.18 36.68 36.7 36.68 50.16 C37.34 50.16 38 50.16 38.68 50.16 C45.03 70.32 51.15 90.42 50.59 111.79 C50.56 113.2 50.56 113.2 50.52 114.63 C50.47 116.43 50.38 118.24 50.26 120.04 C50.09 124.72 50.36 127.33 53.52 130.91 C54.07 131.47 54.61 132.02 55.18 132.6 C72.23 150.27 79.78 201.38 79.87 225.72 C79.81 227.2 79.75 228.68 79.68 230.16 C73.46 229.61 67.87 228.55 61.92 226.69 C61.13 226.45 60.33 226.21 59.51 225.96 C57.01 225.2 54.5 224.43 52 223.66 C49.48 222.89 46.96 222.12 44.45 221.35 C42.89 220.88 41.33 220.4 39.77 219.92 C35.76 218.7 31.85 217.74 27.68 217.16 C27.53 217.7 27.37 218.25 27.2 218.81 C25.85 223.19 24.38 226.72 21.81 230.53 C20.33 233.12 19.64 234.55 19.86 237.54 C20.66 240.47 21.66 243.29 22.68 246.16 C30.14 269.47 32.91 293.52 32.93 317.91 C32.93 318.72 32.94 319.54 32.94 320.38 C32.93 333.83 32.21 346.92 29.68 360.16 C29.54 360.93 29.39 361.7 29.25 362.49 C26.21 378.11 21.36 397.41 8.68 408.16 C8.02 408.16 7.36 408.16 6.68 408.16 C6.68 408.82 6.68 409.48 6.68 410.16 C1.4 410.16 -3.88 410.16 -9.32 410.16 C-9.32 409.5 -9.32 408.84 -9.32 408.16 C-10.31 408.16 -11.3 408.16 -12.32 408.16 C-15.32 404.82 -15.32 404.82 -15.32 402.16 C-15.98 402.16 -16.64 402.16 -17.32 402.16 C-23.36 390.45 -27.67 379.07 -30.32 366.16 C-30.48 365.38 -30.64 364.6 -30.81 363.8 C-38.32 326.19 -35.05 280.55 -21.02 244.91 C-19.81 241.66 -19.24 239.54 -19.93 236.11 C-21.83 232.05 -23.84 228.07 -25.93 224.1 C-27.4 221.24 -28.32 219.43 -28.32 216.16 C-33.55 217.67 -38.77 219.18 -44 220.69 C-45.78 221.2 -47.55 221.72 -49.33 222.23 C-51.05 222.73 -52.77 223.23 -54.5 223.73 C-56.18 224.21 -57.85 224.69 -59.53 225.18 C-64.53 226.62 -69.5 228.13 -74.43 229.8 C-76.67 230.22 -78.16 229.86 -80.32 229.16 C-80.51 222.27 -80.04 215.81 -78.82 209.03 C-78.64 208.06 -78.47 207.09 -78.29 206.09 C-74.8 187.38 -70.07 168.8 -64.13 150.72 C-63.82 149.77 -63.51 148.83 -63.19 147.85 C-60.82 140.91 -58.07 133.04 -52.32 128.16 C-51.66 128.16 -51 128.16 -50.32 128.16 C-50.81 127.17 -50.81 127.17 -51.32 126.16 C-52.44 103.22 -49.9 78.64 -41.11 57.28 C-40.23 54.93 -39.75 52.62 -39.32 50.16 C-38.66 50.16 -38 50.16 -37.32 50.16 C-37.18 49.14 -37.18 49.14 -37.04 48.1 C-36.14 44.44 -34.54 41.32 -32.75 38.03 C-32.4 37.37 -32.04 36.71 -31.67 36.03 C-26.14 26.01 -19.15 17.46 -11.32 9.16 C-10.13 7.84 -10.13 7.84 -8.92 6.5 C-8.14 5.66 -7.37 4.83 -6.57 3.97 C-5.52 2.83 -5.52 2.83 -4.46 1.68 C-2.32 0.16 -2.32 0.16 0 0 Z " fill="#F65034" transform="translate(138.31640625,37.84375)"/>
<path d="M0 0 C4.31 3.69 4.99 8.83 6.44 14.12 C6.74 15.23 7.05 16.33 7.36 17.47 C13.01 38.6 15.23 59.94 15.25 81.75 C15.25 82.57 15.25 83.38 15.25 84.23 C15.24 97.67 14.53 110.76 12 124 C11.86 124.77 11.71 125.54 11.56 126.34 C8.53 141.96 3.68 161.25 -9 172 C-9.66 172 -10.32 172 -11 172 C-11 172.66 -11 173.32 -11 174 C-16.28 174 -21.56 174 -27 174 C-27 173.34 -27 172.68 -27 172 C-27.99 172 -28.98 172 -30 172 C-33 168.67 -33 168.67 -33 166 C-33.66 166 -34.32 166 -35 166 C-41.04 154.3 -45.36 142.91 -48 130 C-48.25 128.83 -48.25 128.83 -48.5 127.64 C-56.43 87.9 -52.04 40.52 -37 3 C-36.34 2.34 -35.68 1.68 -35 1 C-34.61 1.52 -34.22 2.03 -33.81 2.56 C-32.92 3.27 -32.92 3.27 -32 4 C-30.33 3.68 -28.66 3.35 -27 3 C-24.98 3.61 -22.98 4.28 -21 5 C-20.97 5.6 -20.95 6.19 -20.92 6.81 C-20.36 20.21 -19.73 33.61 -19 47 C-18.34 47 -17.68 47 -17 47 C-17.02 45.7 -17.04 44.4 -17.06 43.06 C-17.11 39.98 -16.9 37.02 -16.53 33.97 C-15.85 28.14 -15.65 22.3 -15.44 16.44 C-15.37 14.78 -15.37 14.78 -15.31 13.09 C-15.2 10.39 -15.1 7.7 -15 5 C-13.76 4.67 -12.53 4.34 -11.25 4 C-10.55 3.81 -9.86 3.63 -9.14 3.44 C-7 3 -7 3 -3 3 C-1.25 1.58 -1.25 1.58 0 0 Z " fill="#FEE74B" transform="translate(156,274)"/>
<path d="M0 0 C-1.67 3.33 -3.33 6.67 -5 10 C-4.57 9.34 -4.13 8.68 -3.69 8 C-3.13 7.34 -2.57 6.68 -2 6 C-1.01 6 -0.02 6 1 6 C1.1 6.73 1.2 7.47 1.3 8.22 C3.21 22.04 5.24 35.56 9 49 C9.34 50.31 9.67 51.63 10 52.95 C11.66 59.5 13.51 65.82 16.17 72.05 C17 74 17 74 18 77 C18.99 77.5 18.99 77.5 20 78 C21.06 80.55 22.02 83.08 22.94 85.69 C24.7 90.64 26.64 95.29 29 100 C29 100.66 29 101.32 29 102 C37.41 103.49 37.41 103.49 46 105 C46 94.11 46 83.22 46 72 C46.33 72 46.66 72 47 72 C47.5 77.44 47.5 77.44 48 83 C47.98 81.46 47.95 79.92 47.93 78.33 C47.91 76.3 47.89 74.28 47.88 72.25 C47.86 71.23 47.84 70.22 47.82 69.17 C47.82 68.19 47.81 67.21 47.8 66.2 C47.79 65.3 47.78 64.4 47.77 63.47 C48.01 60.86 48.68 59.24 50 57 C50.33 57 50.66 57 51 57 C51.33 63.93 51.66 70.86 52 78 C53.89 64 54.58 50.11 55 36 C55.33 36 55.66 36 56 36 C56.18 37.29 56.18 37.29 56.37 38.6 C56.53 39.74 56.7 40.88 56.88 42.06 C57.04 43.19 57.2 44.31 57.37 45.47 C58.02 49.1 58.93 52.48 60 56 C77.69 54.18 77.69 54.18 91.88 45.02 C94.31 40.62 94.86 35.59 95.69 30.69 C95.89 29.54 96.1 28.39 96.32 27.2 C97.9 18.17 99.15 9.13 100 0 C105.79 2.5 107.8 7.17 110.18 12.8 C120.24 39.84 131.36 72.84 130 102 C123.78 101.46 118.19 100.39 112.24 98.53 C111.44 98.29 110.65 98.05 109.83 97.8 C107.32 97.04 104.82 96.27 102.31 95.5 C99.8 94.73 97.28 93.96 94.76 93.2 C93.2 92.72 91.65 92.25 90.09 91.76 C86.08 90.54 82.17 89.58 78 89 C77.76 89.82 77.76 89.82 77.52 90.65 C74.84 99.32 71.25 107.26 64 113 C61.19 112.81 61.19 112.81 59 112 C58.67 112.33 58.34 112.66 58 113 C56.33 113.04 54.67 113.04 53 113 C53.01 113.63 53.02 114.27 53.03 114.92 C53.23 128.44 52.9 141.6 51 155 C50.34 155 49.68 155 49 155 C47.16 140.95 46.75 127.16 47 113 C46.26 113 45.51 113 44.75 113 C36.36 113 36.36 113 32.14 109.43 C29.31 106.22 27.61 102.76 25.75 98.94 C25.39 98.22 25.02 97.5 24.65 96.76 C22 91.39 22 91.39 22 88 C16.77 89.51 11.54 91.02 6.31 92.53 C4.54 93.05 2.76 93.56 0.99 94.07 C-0.73 94.57 -2.46 95.07 -4.18 95.57 C-5.86 96.05 -7.54 96.54 -9.21 97.02 C-14.21 98.46 -19.18 99.97 -24.11 101.64 C-26.36 102.07 -27.85 101.7 -30 101 C-30.2 94.12 -29.72 87.65 -28.5 80.88 C-28.33 79.9 -28.15 78.93 -27.98 77.94 C-24.48 59.23 -19.75 40.64 -13.81 22.56 C-13.5 21.62 -13.2 20.67 -12.88 19.7 C-6.14 0 -6.14 0 0 0 Z " fill="#CB3813" transform="translate(88,166)"/>
<path d="M0 0 C-3.09 1.76 -4.23 2 -8 2 C-7.91 2.67 -7.82 3.35 -7.72 4.04 C-7.31 7.15 -6.9 10.26 -6.5 13.38 C-6.36 14.44 -6.21 15.5 -6.07 16.59 C-4.33 30.09 -3.21 46.92 -11.2 58.78 C-13.33 61.5 -14.68 62.89 -18 64 C-18.96 64.99 -18.96 64.99 -19.94 66 C-22 68 -22 68 -26 69 C-26 81.87 -26 94.74 -26 108 C-26.66 108 -27.32 108 -28 108 C-28.33 106.35 -28.66 104.7 -29 103 C-29.06 104.73 -29.06 104.73 -29.11 106.5 C-29.65 120.44 -31.19 134.17 -33 148 C-33.33 148 -33.66 148 -34 148 C-34.33 138.76 -34.66 129.52 -35 120 C-35.92 123.69 -36.1 126.48 -36.06 130.25 C-36.05 131.33 -36.04 132.41 -36.04 133.52 C-36.02 134.34 -36.01 135.16 -36 136 C-38.11 132.84 -38.34 131.49 -38.62 127.81 C-38.7 126.91 -38.77 126.01 -38.85 125.08 C-38.9 124.39 -38.95 123.71 -39 123 C-40.36 122.93 -40.36 122.93 -41.74 122.85 C-42.92 122.78 -44.1 122.7 -45.31 122.62 C-46.48 122.56 -47.66 122.49 -48.86 122.41 C-52 122 -52 122 -55 120 C-49.85 119.91 -45.08 120.15 -40 121 C-40 120.34 -40 119.68 -40 119 C-41.28 118.87 -42.55 118.73 -43.87 118.6 C-45.54 118.42 -47.21 118.24 -48.88 118.06 C-49.72 117.98 -50.56 117.89 -51.43 117.8 C-52.23 117.71 -53.04 117.62 -53.87 117.54 C-54.61 117.46 -55.35 117.38 -56.12 117.3 C-58 117 -58 117 -60 116 C-60.55 113.63 -60.95 111.35 -61.29 108.95 C-61.4 108.2 -61.51 107.45 -61.62 106.68 C-61.97 104.16 -62.3 101.64 -62.62 99.12 C-62.74 98.26 -62.85 97.39 -62.97 96.49 C-64.95 80.74 -65.47 65.11 -65.44 49.25 C-65.44 48.19 -65.44 47.12 -65.44 46.03 C-65.36 12.09 -65.36 12.09 -62 2 C-63.65 1.67 -65.3 1.34 -67 1 C-63.26 -0.25 -61.55 0.45 -57.75 1.41 C-50.11 3.14 -42.84 3.45 -35 3.38 C-33.12 3.39 -33.12 3.39 -31.21 3.41 C-21.91 3.38 -8.17 -2.45 0 0 Z " fill="#FE6E46" transform="translate(173,104)"/>
<path d="M0 0 C5.79 2.5 7.8 7.17 10.18 12.8 C20.24 39.84 31.36 72.84 30 102 C23.78 101.46 18.19 100.39 12.24 98.53 C11.05 98.17 11.05 98.17 9.83 97.8 C7.32 97.04 4.82 96.27 2.31 95.5 C-0.2 94.73 -2.72 93.96 -5.24 93.2 C-6.8 92.72 -8.35 92.25 -9.91 91.76 C-13.92 90.54 -17.83 89.58 -22 89 C-22.24 89.82 -22.24 89.82 -22.48 90.65 C-25.16 99.32 -28.75 107.26 -36 113 C-38.81 112.81 -38.81 112.81 -41 112 C-41.5 112.5 -41.5 112.5 -42 113 C-43.67 113.04 -45.33 113.04 -47 113 C-46.99 113.7 -46.99 114.4 -46.98 115.12 C-46.96 118.31 -46.95 121.5 -46.94 124.69 C-46.93 125.79 -46.92 126.89 -46.91 128.03 C-46.91 129.1 -46.91 130.16 -46.9 131.26 C-46.9 132.24 -46.89 133.22 -46.89 134.23 C-47 136.92 -47.39 139.38 -48 142 C-48.33 142 -48.66 142 -49 142 C-49.56 117.54 -47.93 93.37 -46 69 C-45.67 69 -45.34 69 -45 69 C-44.89 80.73 -45.06 92.3 -46 104 C-39.56 103.5 -39.56 103.5 -33 103 C-33.18 101.74 -33.36 100.49 -33.55 99.19 C-34.22 94.54 -34.89 89.88 -35.56 85.22 C-35.85 83.2 -36.14 81.19 -36.44 79.17 C-36.86 76.27 -37.27 73.38 -37.69 70.48 C-37.82 69.58 -37.95 68.67 -38.09 67.74 C-38.21 66.9 -38.33 66.06 -38.45 65.2 C-38.56 64.46 -38.66 63.72 -38.77 62.96 C-39 61 -39 61 -39 58 C-37.89 57.83 -36.78 57.66 -35.63 57.48 C-20.13 55.13 -20.13 55.13 -7 47 C-7.62 48.83 -7.62 48.83 -8.25 50.69 C-9.49 54.4 -10.64 58.13 -11.75 61.88 C-14.44 70.72 -17.75 79.35 -21 88 C-18.03 87.5 -18.03 87.5 -15 87 C-10.15 73.34 -6.46 59.59 -3.45 45.41 C-3.19 44.19 -3.19 44.19 -2.92 42.94 C-2.77 42.21 -2.61 41.47 -2.46 40.72 C-2 39 -2 39 -1 38 C-1 36.68 -1 35.36 -1 34 C-1 30 -1 30 0 29 C0.1 26.32 0.14 23.68 0.12 21 C0.13 20.25 0.13 19.5 0.14 18.73 C0.48 15.06 0.48 15.06 -1 12 C-0.91 9.98 -0.75 7.95 -0.56 5.94 C-0.46 4.83 -0.36 3.73 -0.25 2.59 C-0.17 1.74 -0.09 0.88 0 0 Z " fill="#C33514" transform="translate(188,166)"/>
<path d="M0 0 C2.74 2.74 3.39 5.87 4.44 9.5 C4.77 10.63 4.77 10.63 5.1 11.78 C7.43 20.08 8.84 28.47 10 37 C10.2 38.41 10.2 38.41 10.4 39.84 C12.42 57.33 10.75 74.7 8 92 C7.86 92.97 7.71 93.94 7.56 94.95 C7.13 97.8 6.67 100.65 6.19 103.5 C6.06 104.35 5.93 105.21 5.8 106.09 C4.72 112.05 2.67 116.05 -2 120 C-10.76 124.83 -20.17 125.84 -30 126 C-33 119.38 -33 119.38 -33 116 C-32.34 116 -31.68 116 -31 116 C-31 103.13 -31 90.26 -31 77 C-29.02 76.01 -27.04 75.02 -25 74 C-24.34 73.01 -23.68 72.02 -23 71 C-22.22 70.59 -21.43 70.18 -20.62 69.75 C-15.24 66.16 -13.34 60.09 -12 54 C-10.46 43.55 -10.9 33.57 -12.29 23.15 C-12.87 18.72 -13.09 14.47 -13 10 C-11.02 9.34 -9.04 8.68 -7 8 C-7 7.34 -7 6.68 -7 6 C-5.01 4.65 -3.01 3.31 -1 2 C-0.67 1.34 -0.34 0.68 0 0 Z " fill="#FA5B3B" transform="translate(178,96)"/>
<path d="M0 0 C5.94 0 11.88 0 18 0 C17.34 0.33 16.68 0.66 16 1 C15.93 5.13 15.93 5.13 17 9 C19.06 10.53 21.19 11.5 23.51 12.6 C29.61 16.03 34.57 22.2 36.6 28.91 C38.21 37.26 36.72 44.4 33 52 C31.47 54.25 29.91 56.04 28 58 C27.01 57.5 27.01 57.5 26 57 C24.7 57.93 24.7 57.93 23.38 58.88 C16.74 63.05 10.72 63.74 3 63 C-1.13 61.89 -4.85 59.9 -8 57 C-8 56.34 -8 55.68 -8 55 C-8.6 54.79 -9.2 54.59 -9.81 54.38 C-13.27 52.2 -14.42 48.91 -15.58 45.09 C-16.04 42.81 -16.1 40.76 -16.06 38.44 C-16.05 37.67 -16.04 36.91 -16.04 36.12 C-16.02 35.42 -16.01 34.72 -16 34 C-16 33.01 -16 32.02 -16 31 C-16.03 33.4 -16.05 35.79 -16.06 38.19 C-16.07 38.86 -16.08 39.53 -16.09 40.23 C-16.11 43.95 -15.89 47.38 -15 51 C-18.1 48.03 -18.96 46.79 -19.2 42.33 C-19.22 40.83 -19.24 39.32 -19.25 37.81 C-19.28 36.7 -19.28 36.7 -19.31 35.56 C-19.37 27.29 -16.46 21.88 -10.91 15.8 C-8.16 13.21 -5.39 11.66 -2 10 C-1.34 9.67 -0.68 9.34 0 9 C0 6.03 0 3.06 0 0 Z " fill="#F1FDFB" transform="translate(130,109)"/>
<path d="M0 0 C0.75 0.23 1.5 0.46 2.27 0.7 C1.61 1.03 0.95 1.36 0.27 1.7 C0.58 2.59 0.88 3.48 1.19 4.39 C3.96 12.75 6.16 21.15 8.02 29.76 C8.23 30.74 8.44 31.71 8.66 32.72 C10.39 40.94 11.42 48.73 11.34 57.14 C11.33 57.96 11.33 58.79 11.32 59.64 C11.31 61.66 11.29 63.68 11.27 65.7 C17.21 65.2 17.21 65.2 23.27 64.7 C12.21 72.07 -7.53 69.77 -20.04 67.39 C-33.54 64.24 -33.54 64.24 -38.73 59.7 C-35.33 49.03 -31.21 39.44 -25.53 29.8 C-22.58 25.05 -22.58 25.05 -21.73 19.7 C-20.11 17.7 -18.5 15.86 -16.73 14.01 C-15.98 13.22 -15.98 13.22 -15.21 12.41 C-14.2 11.34 -13.18 10.27 -12.16 9.21 C-10.88 7.86 -9.63 6.48 -8.39 5.1 C-7.72 4.37 -7.04 3.64 -6.35 2.89 C-5.77 2.24 -5.18 1.6 -4.58 0.93 C-2.73 -0.3 -2.73 -0.3 0 0 Z " fill="#FC6544" transform="translate(138.7265625,38.30078125)"/>
<path d="M0 0 C0.03 0.6 0.05 1.19 0.08 1.81 C0.64 15.21 1.27 28.61 2 42 C2.66 42 3.32 42 4 42 C3.98 40.7 3.96 39.4 3.94 38.06 C3.89 34.98 4.1 32.02 4.47 28.97 C5.15 23.14 5.35 17.3 5.56 11.44 C5.61 10.33 5.65 9.23 5.69 8.09 C5.8 5.39 5.9 2.7 6 0 C14.43 -2.43 14.43 -2.43 19 -1 C23.5 37.09 23.5 37.09 14.35 51.62 C12.68 53.61 10.98 55.31 9 57 C8.07 57.82 7.14 58.65 6.19 59.5 C4 61 4 61 2 61 C2 60.01 2 59.02 2 58 C1.42 57.98 0.84 57.96 0.25 57.94 C-3.38 56.42 -4.25 53.44 -6 50 C-6.99 50.5 -6.99 50.5 -8 51 C-8 49.35 -8 47.7 -8 46 C-8.66 46 -9.32 46 -10 46 C-11.69 35.43 -12.26 25.25 -12.12 14.56 C-12.11 13.14 -12.11 11.71 -12.1 10.29 C-12.08 6.86 -12.04 3.43 -12 0 C-7.44 -2.77 -4.92 -1.48 0 0 Z " fill="#E9F8D1" transform="translate(135,279)"/>
<path d="M0 0 C0.58 0.19 1.16 0.38 1.76 0.58 C8.48 2.7 15.18 4.05 22.12 5.19 C23.18 5.36 24.23 5.54 25.31 5.72 C27.87 6.16 30.44 6.58 33 7 C33.33 6.34 33.66 5.68 34 5 C34.06 5.83 34.12 6.66 34.18 7.52 C34.27 8.61 34.35 9.69 34.44 10.81 C34.52 11.89 34.6 12.97 34.68 14.08 C34.9 17.06 34.9 17.06 36 20 C36.07 22.23 36.08 24.46 36.06 26.69 C36.05 27.87 36.04 29.05 36.04 30.26 C36.02 31.17 36.01 32.07 36 33 C35.34 31.68 34.68 30.36 34 29 C33.67 36.26 33.34 43.52 33 51 C19.16 50.17 19.16 50.17 16 48 C12.02 41.2 7 31.93 7 24 C6.01 23.67 5.02 23.34 4 23 C2.87 20.42 2.87 20.42 1.88 17.19 C1.38 15.6 1.38 15.6 0.87 13.98 C0.58 13 0.29 12.01 0 11 C-0.21 10.29 -0.43 9.58 -0.64 8.85 C-1.23 5.83 -0.52 3 0 0 Z " fill="#F34625" transform="translate(101,220)"/>
<path d="M0 0 C1.08 3.25 0.87 3.87 0 7 C-0.79 15.08 0.72 21.48 5.88 27.81 C10.1 32.4 14.29 34.64 20.48 35.24 C27.31 35.43 32.02 34.24 38 31 C39.33 30.33 40.66 29.66 42 29 C42 29.66 42 30.32 42 31 C38.43 34.33 36.81 35.8 32 37 C32 49.87 32 62.74 32 76 C31.34 76 30.68 76 30 76 C29.67 74.35 29.34 72.7 29 71 C28.96 72.15 28.93 73.31 28.89 74.5 C28.35 88.44 26.81 102.17 25 116 C24.67 116 24.34 116 24 116 C23.5 102.14 23.5 102.14 23 88 C22.08 91.69 21.9 94.48 21.94 98.25 C21.95 99.33 21.96 100.41 21.96 101.52 C21.98 102.34 21.99 103.16 22 104 C19.89 100.84 19.66 99.49 19.38 95.81 C19.3 94.91 19.23 94.01 19.15 93.08 C19.1 92.39 19.05 91.71 19 91 C17.64 90.93 17.64 90.93 16.26 90.85 C15.08 90.78 13.9 90.7 12.69 90.62 C11.52 90.56 10.34 90.49 9.14 90.41 C6 90 6 90 3 88 C8.15 87.91 12.92 88.15 18 89 C18 88.34 18 87.68 18 87 C15.36 86.67 12.72 86.34 10 86 C10 85.67 10 85.34 10 85 C11.98 85 13.96 85 16 85 C15.88 84.22 15.76 83.43 15.63 82.62 C15.07 78.96 14.53 75.29 14 71.62 C13.85 70.63 13.85 70.63 13.71 69.62 C12.54 61.58 11.78 53.82 12.19 45.69 C12.39 40.7 12.3 37.28 8.88 33.38 C7.59 32.24 6.3 31.11 5 30 C3.84 28.59 2.71 27.16 1.62 25.69 C1.14 25.05 0.66 24.42 0.16 23.76 C-2.38 19.91 -2.18 16 -2.19 11.56 C-2.2 10.24 -2.22 8.93 -2.23 7.57 C-2.02 4.34 -1.72 2.66 0 0 Z " fill="#FFA26D" transform="translate(115,136)"/>
<path d="M0 0 C4.56 0.87 7.02 3.53 10.19 6.75 C10.76 7.32 11.33 7.9 11.91 8.49 C26 23.08 26 23.08 26 30 C26.68 31.81 26.68 31.81 27.64 33.7 C27.99 34.41 28.34 35.12 28.69 35.85 C29.25 36.98 29.25 36.98 29.81 38.12 C37.56 54.28 37.56 54.28 36.32 58.09 C33.68 61.91 29.36 62.94 25 64 C20.31 64.31 15.69 64.24 11 64 C10.99 63 10.97 62 10.96 60.98 C10.45 42.96 6.75 25.16 1.8 7.86 C1.07 5.25 0.49 2.66 0 0 Z " fill="#FC6C4A" transform="translate(139,40)"/>
<path d="M0 0 C3.7 3.7 2.43 9.76 2.44 14.75 C2.44 16.05 2.44 17.36 2.45 18.7 C2.36 30.18 1.1 41.45 -0.44 52.81 C-0.55 53.66 -0.67 54.52 -0.79 55.39 C-1.12 57.81 -1.46 60.23 -1.81 62.64 C-1.91 63.38 -2.02 64.11 -2.12 64.86 C-2.88 69.88 -2.88 69.88 -4 71 C-6.35 71.24 -8.71 71.41 -11.06 71.56 C-12.35 71.65 -13.64 71.73 -14.97 71.82 C-15.97 71.88 -16.97 71.94 -18 72 C-21 65.38 -21 65.38 -21 62 C-20.34 62 -19.68 62 -19 62 C-19 49.13 -19 36.26 -19 23 C-17.02 22.01 -15.04 21.02 -13 20 C-12.34 19.01 -11.68 18.02 -11 17 C-10.22 16.59 -9.43 16.18 -8.62 15.75 C-3.16 12.1 -1.49 6.09 0 0 Z " fill="#FE6842" transform="translate(166,150)"/>
<path d="M0 0 C0.66 0.33 1.32 0.66 2 1 C2.03 3.6 2.05 6.21 2.06 8.81 C2.07 9.55 2.08 10.29 2.09 11.05 C2.1 14.3 2.04 16.89 1 20 C1.02 20.99 1.04 21.98 1.06 23 C1 26 1 26 -1 29 C-1.48 31.26 -1.88 33.53 -2.25 35.81 C-3.46 42.79 -5.09 49.6 -6.94 56.44 C-7.18 57.35 -7.42 58.26 -7.67 59.2 C-9.28 65.07 -11.36 70.51 -14 76 C-15.98 76 -17.96 76 -20 76 C-19.37 70.21 -17.26 65.18 -15.12 59.81 C-12.32 52.62 -9.7 45.55 -8 38 C-9.38 37.9 -9.38 37.9 -11.5 39.81 C-19.41 45.18 -28.68 46.16 -38 46 C-37.88 46.63 -37.76 47.27 -37.64 47.92 C-36.23 55.51 -35.02 63.12 -33.88 70.75 C-33.69 71.93 -33.51 73.11 -33.32 74.32 C-32.48 79.94 -31.75 85.32 -32 91 C-36.61 92.15 -39.94 92 -45 92 C-44.67 69.56 -44.34 47.12 -44 24 C-43.67 24 -43.34 24 -43 24 C-42.88 24.86 -42.76 25.71 -42.63 26.6 C-42.47 27.74 -42.3 28.88 -42.12 30.06 C-41.96 31.19 -41.8 32.31 -41.63 33.47 C-40.98 37.1 -40.07 40.48 -39 44 C-21.3 42.09 -21.3 42.09 -7.15 32.74 C-5.26 29.88 -4.79 26.98 -4.2 23.63 C-4.07 22.95 -3.95 22.27 -3.82 21.57 C-3.42 19.43 -3.05 17.28 -2.69 15.12 C-2.42 13.66 -2.16 12.19 -1.89 10.73 C-1.24 7.15 -0.61 3.58 0 0 Z " fill="#860201" transform="translate(187,178)"/>
<path d="M0 0 C-3.09 1.76 -4.23 2 -8 2 C-7.91 2.67 -7.82 3.35 -7.72 4.04 C-7.31 7.15 -6.9 10.26 -6.5 13.38 C-6.36 14.44 -6.21 15.5 -6.07 16.59 C-5.23 23.1 -4.8 29.43 -5 36 C-5.66 36 -6.32 36 -7 36 C-7.21 35.44 -7.42 34.89 -7.63 34.31 C-11.47 24.79 -16.56 19.07 -26 15 C-27 14 -27 14 -27.1 12.15 C-27.07 10.1 -27.03 8.05 -27 6 C-31.95 6 -36.9 6 -42 6 C-41.79 7.2 -41.59 8.39 -41.38 9.62 C-41.36 11.85 -41.36 11.85 -42 14 C-44.3 15.84 -46.71 17.07 -49.32 18.44 C-54.3 21.34 -57.94 25.45 -60.15 30.77 C-61.12 34.46 -61.38 37.88 -61.56 41.69 C-61.9 48.71 -61.9 48.71 -63 52 C-63.23 54.57 -63.42 57.12 -63.56 59.69 C-63.61 60.39 -63.65 61.09 -63.69 61.81 C-63.8 63.54 -63.9 65.27 -64 67 C-64.33 67 -64.66 67 -65 67 C-65.05 61.38 -65.09 55.77 -65.11 50.15 C-65.12 48.25 -65.13 46.35 -65.15 44.45 C-65.44 12.32 -65.44 12.32 -62 2 C-63.65 1.67 -65.3 1.34 -67 1 C-63.26 -0.25 -61.55 0.45 -57.75 1.41 C-50.11 3.14 -42.84 3.45 -35 3.38 C-33.12 3.39 -33.12 3.39 -31.21 3.41 C-21.91 3.38 -8.17 -2.45 0 0 Z " fill="#FE7752" transform="translate(173,104)"/>
<path d="M0 0 C0 3.6 -0.98 6.61 -2.06 10 C-2.39 11.03 -2.39 11.03 -2.73 12.09 C-4.6 17.9 -6.58 23.68 -8.62 29.44 C-9.06 30.69 -9.06 30.69 -9.5 31.97 C-9.78 32.74 -10.06 33.51 -10.35 34.31 C-10.6 35 -10.84 35.69 -11.1 36.4 C-12 38 -12 38 -15 39 C-15.92 40.86 -15.92 40.86 -16.5 43.12 C-17.77 47.25 -19.07 51.13 -21 55 C-22.49 55.5 -22.49 55.5 -24 56 C-25.56 50.94 -26.57 46.01 -27.29 40.77 C-27.45 39.63 -27.45 39.63 -27.62 38.46 C-27.84 36.87 -28.07 35.28 -28.29 33.68 C-28.63 31.24 -28.97 28.8 -29.32 26.36 C-29.54 24.81 -29.76 23.26 -29.98 21.7 C-30.08 20.97 -30.18 20.25 -30.29 19.5 C-30.68 16.64 -31 13.89 -31 11 C-29.33 10.74 -29.33 10.74 -27.63 10.48 C-12.24 8.55 -12.24 8.55 0 0 Z " fill="#F0391D" transform="translate(180,213)"/>
<path d="M0 0 C1.88 0.19 1.88 0.19 4 1 C7.38 7.3 6.67 15.08 6 22 C3.9 28.06 -1.51 31.2 -7 34 C-12.83 36.72 -19.9 37.1 -26.12 35.43 C-29.39 34.09 -32.4 32.39 -35 30 C-35 29.34 -35 28.68 -35 28 C-36.32 27.34 -37.64 26.68 -39 26 C-35.18 23.87 -31.51 23.27 -27.24 22.56 C-24.82 22.16 -24.82 22.16 -23 20 C-22.24 20.13 -21.48 20.26 -20.7 20.4 C-17.96 20.3 -17.96 20.3 -16.69 18.45 C-15.31 16.21 -14.05 13.94 -12.81 11.62 C-11.95 10.05 -11.08 8.48 -10.21 6.91 C-9.83 6.21 -9.45 5.51 -9.07 4.79 C-8 3 -8 3 -6 1 C-3.38 0.88 -3.38 0.88 -1 1 C0.94 5.13 1.37 8.77 1.62 13.31 C1.7 14.57 1.77 15.82 1.85 17.11 C1.9 18.07 1.95 19.02 2 20 C2.05 17.79 2.09 15.58 2.12 13.38 C2.15 12.15 2.17 10.92 2.2 9.65 C2 6.06 1.3 3.33 0 0 Z " fill="#59EFE8" transform="translate(157,136)"/>
<path d="M0 0 C3.09 3.83 4.25 7.66 5.44 12.38 C5.65 13.21 5.86 14.04 6.08 14.89 C10.06 30.98 12.74 46.39 12 63 C17.94 62.5 17.94 62.5 24 62 C16.74 66.84 7.38 66.2 -1.06 66.25 C-2.47 66.26 -2.47 66.26 -3.91 66.28 C-5.24 66.27 -5.24 66.27 -6.6 66.27 C-7.4 66.26 -8.2 66.26 -9.02 66.26 C-11 66 -11 66 -13 64 C-10.53 63.5 -10.53 63.5 -8 63 C-8.08 61.84 -8.16 60.69 -8.25 59.5 C-8.26 55.32 -7.08 52.86 -5.09 49.27 C0.29 38.04 0.15 25.14 0.06 13 C0.06 11.75 0.05 10.5 0.05 9.21 C0.04 6.14 0.02 3.07 0 0 Z " fill="#FFF3B9" transform="translate(138,41)"/>
<path d="M0 0 C2.47 0.49 2.47 0.49 5 1 C4.34 1.66 3.68 2.32 3 3 C2.75 5.59 2.75 5.59 2.88 8.61 C2.89 9.75 2.91 10.89 2.93 12.07 C2.96 13.89 2.96 13.89 3 15.75 C3.13 31.37 2.09 43.81 -5 58 C-5.07 59.54 -5.08 61.08 -5.06 62.62 C-5.05 63.44 -5.04 64.26 -5.04 65.1 C-5.02 65.73 -5.01 66.35 -5 67 C-16.52 68.52 -16.52 68.52 -22 66 C-22 65.67 -22 65.34 -22 65 C-19.36 64.67 -16.72 64.34 -14 64 C-14.5 62.52 -14.5 62.52 -15 61 C-13.52 60.5 -13.52 60.5 -12 60 C-13.32 59.01 -14.64 58.02 -16 57 C-13.73 45.24 -11.38 33.54 -7.94 22.06 C-7.7 21.28 -7.47 20.49 -7.23 19.69 C-5.77 14.96 -3.98 10.51 -1.87 6.04 C-1.02 4.04 -0.47 2.12 0 0 Z " fill="#FE845A" transform="translate(136,38)"/>
<path d="M0 0 C0.05 4.05 0.09 8.11 0.11 12.16 C0.12 13.53 0.13 14.9 0.15 16.28 C0.43 38.36 0.43 38.36 -4 45 C-4.31 45.99 -4.62 46.98 -4.94 48 C-6.46 52.31 -6.46 52.31 -9 54 C-11.38 54.56 -11.38 54.56 -14 54 C-19.75 48.12 -21.28 43.81 -21.62 35.75 C-21.66 35 -21.7 34.26 -21.74 33.49 C-21.84 31.66 -21.92 29.83 -22 28 C-20 31 -20 31 -20 33 C-19.01 33.33 -18.02 33.66 -17 34 C-17 34.66 -17 35.32 -17 36 C-15.02 35.5 -15.02 35.5 -13 35 C-13 37.64 -13 40.28 -13 43 C-12.34 43 -11.68 43 -11 43 C-11.02 41.7 -11.04 40.4 -11.06 39.06 C-11.11 35.98 -10.9 33.02 -10.53 29.97 C-9.85 24.14 -9.65 18.3 -9.44 12.44 C-9.39 11.33 -9.35 10.23 -9.31 9.09 C-9.2 6.39 -9.1 3.7 -9 1 C-3.38 -1.12 -3.38 -1.12 0 0 Z " fill="#ADFCFB" transform="translate(150,278)"/>
<path d="M0 0 C5.94 0 11.88 0 18 0 C17.34 0.33 16.68 0.66 16 1 C15.93 5.13 15.93 5.13 17 9 C19.06 10.53 21.19 11.5 23.51 12.6 C29.61 16.03 34.57 22.2 36.6 28.91 C38.21 37.26 36.72 44.4 33 52 C31.47 54.25 29.91 56.04 28 58 C28 55 28 55 29.96 52.3 C32.31 48.5 32.66 45.59 32.56 41.25 C32.55 40.55 32.54 39.85 32.53 39.12 C32.23 31.57 29.8 25.34 24.25 20.06 C18.1 16.16 11.36 13.81 4 15 C-3.05 16.77 -7.24 19.61 -11.62 25.39 C-12.31 26.19 -12.31 26.19 -13 27 C-13.66 27 -14.32 27 -15 27 C-16.22 30.8 -16.13 34.47 -16.12 38.44 C-16.13 39.74 -16.13 41.03 -16.13 42.37 C-16.02 45.4 -15.71 48.06 -15 51 C-18.1 48.03 -18.96 46.79 -19.2 42.33 C-19.22 40.83 -19.24 39.32 -19.25 37.81 C-19.28 36.7 -19.28 36.7 -19.31 35.56 C-19.37 27.29 -16.46 21.88 -10.91 15.8 C-8.16 13.21 -5.39 11.66 -2 10 C-1.34 9.67 -0.68 9.34 0 9 C0 6.03 0 3.06 0 0 Z " fill="#ECE8E5" transform="translate(130,109)"/>
<path d="M0 0 C2.31 0 4.62 0 7 0 C7.02 5.1 7.04 10.21 7.05 15.31 C7.06 17.05 7.07 18.78 7.08 20.51 C7.09 23.02 7.09 25.52 7.1 28.03 C7.1 28.79 7.11 29.55 7.11 30.34 C7.11 41.25 7.11 41.25 6 46 C4 47 4 47 1.95 46.33 C0 45 0 45 -0.82 43.14 C-2.17 35.5 -2.3 27.99 -2.25 20.25 C-2.26 18.96 -2.27 17.67 -2.27 16.35 C-2.27 15.1 -2.27 13.86 -2.27 12.58 C-2.26 11.46 -2.26 10.34 -2.26 9.18 C-1.99 5.84 -1.19 3.12 0 0 Z " fill="#FEFBF3" transform="translate(135,174)"/>
<path d="M0 0 C0.66 0.33 1.32 0.66 2 1 C2.03 3.6 2.05 6.21 2.06 8.81 C2.07 9.55 2.08 10.29 2.09 11.05 C2.1 14.3 2.04 16.89 1 20 C1.02 20.99 1.04 21.98 1.06 23 C1 26 1 26 -1 29 C-1.48 31.26 -1.88 33.53 -2.25 35.81 C-3.46 42.79 -5.09 49.6 -6.94 56.44 C-7.18 57.35 -7.42 58.26 -7.67 59.2 C-9.28 65.07 -11.36 70.51 -14 76 C-15.98 76 -17.96 76 -20 76 C-19.37 70.21 -17.26 65.18 -15.12 59.81 C-12.32 52.61 -9.82 45.52 -8 38 C-7.69 36.95 -7.38 35.9 -7.06 34.82 C-6.02 31.07 -5.22 27.35 -4.49 23.54 C-4.36 22.86 -4.23 22.18 -4.1 21.48 C-3.69 19.34 -3.28 17.2 -2.88 15.06 C-2.6 13.6 -2.32 12.14 -2.04 10.68 C-1.35 7.12 -0.68 3.56 0 0 Z " fill="#6A0302" transform="translate(187,178)"/>
<path d="M0 0 C1.08 3.25 0.87 3.87 0 7 C-0.79 15.08 0.72 21.48 5.88 27.81 C10.1 32.4 14.29 34.64 20.48 35.24 C27.31 35.43 32.02 34.24 38 31 C39.33 30.33 40.66 29.66 42 29 C42 29.66 42 30.32 42 31 C38.43 34.33 36.81 35.8 32 37 C32 49.87 32 62.74 32 76 C31.34 76 30.68 76 30 76 C29.67 74.35 29.34 72.7 29 71 C28.34 74.96 27.68 78.92 27 83 C26.67 83 26.34 83 26 83 C25.89 67.96 25.9 53 27 38 C24.69 38 22.38 38 20 38 C18.94 43.17 18.88 48.12 18.94 53.38 C18.94 54.21 18.95 55.04 18.95 55.89 C18.96 57.93 18.98 59.96 19 62 C18.34 61.67 17.68 61.34 17 61 C17 53.41 17 45.82 17 38 C15.02 37.34 13.04 36.68 11 36 C8.5 33.81 8.5 33.81 6 31 C5.48 30.44 4.96 29.87 4.43 29.29 C-0.77 23.52 -2.28 19.36 -2.25 11.44 C-2.26 10.14 -2.26 8.84 -2.27 7.5 C-2.03 4.33 -1.68 2.63 0 0 Z " fill="#FAB782" transform="translate(115,136)"/>
<path d="M0 0 C0 3.6 -0.98 6.61 -2.06 10 C-2.39 11.03 -2.39 11.03 -2.72 12.09 C-4.6 17.91 -6.61 23.69 -8.69 29.44 C-8.98 30.27 -9.28 31.11 -9.59 31.97 C-9.87 32.74 -10.16 33.51 -10.45 34.31 C-10.7 35 -10.95 35.69 -11.21 36.4 C-12 38 -12 38 -14 39 C-12.82 33.02 -11.17 27.56 -9.02 21.86 C-7.4 17.32 -6.19 12.67 -5 8 C-5.6 8.22 -6.21 8.43 -6.83 8.66 C-7.63 8.93 -8.43 9.21 -9.25 9.5 C-10.04 9.78 -10.83 10.06 -11.64 10.34 C-14 11 -14 11 -18 11 C-18.12 12.28 -18.23 13.56 -18.35 14.88 C-18.93 20.04 -20.06 24.97 -21.38 30 C-21.69 31.29 -21.69 31.29 -22.01 32.6 C-22.22 33.41 -22.43 34.22 -22.65 35.06 C-22.84 35.8 -23.02 36.53 -23.22 37.29 C-23.47 37.85 -23.73 38.42 -24 39 C-25.49 39.5 -25.49 39.5 -27 40 C-27.67 35.73 -28.34 31.46 -29 27.19 C-29.19 25.97 -29.38 24.76 -29.58 23.51 C-29.76 22.34 -29.94 21.18 -30.12 19.98 C-30.29 18.91 -30.46 17.83 -30.63 16.73 C-31 14 -31 14 -31 11 C-29.33 10.74 -29.33 10.74 -27.63 10.48 C-12.24 8.55 -12.24 8.55 0 0 Z " fill="#F84F2F" transform="translate(180,213)"/>
<path d="M0 0 C0.33 0 0.66 0 1 0 C1.33 6.93 1.66 13.86 2 21 C2.66 15.39 3.32 9.78 4 4 C4.33 4 4.66 4 5 4 C4.62 16.7 4.12 29.35 2.94 42 C1.86 53.81 1.85 65.55 1.99 77.39 C2.06 84.35 1.99 91.1 1 98 C0.34 98 -0.32 98 -1 98 C-1.75 92.71 -2.11 87.66 -2.06 82.3 C-2.05 80.84 -2.05 79.38 -2.04 77.91 C-2.03 77.16 -2.02 76.41 -2.02 75.63 C-1.93 64.65 -1.9 53.67 -2.44 42.69 C-2.5 41.47 -2.5 41.47 -2.56 40.22 C-2.73 37.07 -3 34 -3.53 30.89 C-4.07 27.59 -4.1 24.46 -4.06 21.12 C-4.05 19.97 -4.04 18.82 -4.04 17.63 C-4.02 16.76 -4.01 15.9 -4 15 C-3.67 15 -3.34 15 -3 15 C-2.67 18.63 -2.34 22.26 -2 26 C-2.02 24.46 -2.05 22.92 -2.07 21.33 C-2.09 19.3 -2.11 17.28 -2.12 15.25 C-2.14 14.23 -2.16 13.22 -2.18 12.17 C-2.19 10.7 -2.19 10.7 -2.2 9.2 C-2.21 8.3 -2.22 7.4 -2.23 6.47 C-1.99 3.86 -1.32 2.24 0 0 Z " fill="#C74A1E" transform="translate(138,223)"/>
<path d="M0 0 C3.7 6.16 3.14 13.5 3.06 20.44 C3.06 21.26 3.05 22.09 3.05 22.94 C3.04 24.96 3.02 26.98 3 29 C6.96 28.67 10.92 28.34 15 28 C7.74 32.84 -1.62 32.2 -10.06 32.25 C-11.47 32.26 -11.47 32.26 -12.91 32.28 C-14.24 32.27 -14.24 32.27 -15.6 32.27 C-16.4 32.26 -17.2 32.26 -18.02 32.26 C-20 32 -20 32 -22 30 C-20.35 29.67 -18.7 29.34 -17 29 C-17.12 27.27 -17.12 27.27 -17.25 25.5 C-17.27 20.55 -15.42 17.2 -13 13 C-12.33 11.67 -11.66 10.34 -11 9 C-10.08 11.77 -9.88 13.38 -9.9 16.23 C-9.91 17.03 -9.91 17.84 -9.91 18.66 C-9.92 19.5 -9.93 20.33 -9.94 21.19 C-9.94 22.03 -9.95 22.88 -9.95 23.75 C-9.96 25.83 -9.98 27.92 -10 30 C-7.69 30 -5.38 30 -3 30 C-3.03 29.01 -3.07 28.01 -3.11 26.99 C-3.33 17.52 -2.42 9.21 0 0 Z " fill="#FEDAA5" transform="translate(147,75)"/>
<path d="M0 0 C2.49 7.47 -0.95 17.07 -2.56 24.56 C-2.8 25.67 -3.03 26.77 -3.27 27.91 C-3.84 30.61 -4.42 33.3 -5 36 C-3.68 36.99 -2.36 37.98 -1 39 C-1.33 39.99 -1.66 40.98 -2 42 C-2 41.34 -2 40.68 -2 40 C-2.99 40 -3.98 40 -5 40 C-4.34 41.32 -3.68 42.64 -3 44 C-4.79 44.22 -6.58 44.43 -8.38 44.62 C-9.37 44.74 -10.37 44.86 -11.4 44.98 C-12.69 44.99 -12.69 44.99 -14 45 C-14.66 44.34 -15.32 43.68 -16 43 C-15.01 43 -14.02 43 -13 43 C-12.99 42.33 -12.97 41.66 -12.96 40.97 C-12.36 28.94 -8.78 8.78 0 0 Z " fill="#FE7354" transform="translate(126,59)"/>
<path d="M0 0 C0.33 0 0.66 0 1 0 C1.11 11.72 0.99 23.32 0 35 C2.15 34.89 4.29 34.76 6.44 34.62 C7.63 34.56 8.83 34.49 10.06 34.41 C11.51 34.21 11.51 34.21 13 34 C13.33 33.34 13.66 32.68 14 32 C14.99 32 15.98 32 17 32 C17.66 31.67 18.32 31.34 19 31 C17.74 36.74 14.76 40.65 10 44 C7.12 43.88 7.12 43.88 5 43 C4.5 43.5 4.5 43.5 4 44 C2.33 44.04 0.67 44.04 -1 44 C-0.99 44.7 -0.99 45.4 -0.98 46.12 C-0.96 49.31 -0.95 52.5 -0.94 55.69 C-0.93 56.79 -0.92 57.89 -0.91 59.03 C-0.91 60.1 -0.91 61.16 -0.9 62.26 C-0.9 63.24 -0.89 64.22 -0.89 65.23 C-1 67.92 -1.39 70.38 -2 73 C-2.33 73 -2.66 73 -3 73 C-3.56 48.54 -1.93 24.37 0 0 Z " fill="#9D280D" transform="translate(142,235)"/>
<path d="M0 0 C0.15 4.42 0.23 8.83 0.31 13.25 C0.38 15.1 0.38 15.1 0.44 16.99 C0.55 25.51 -0.57 32.59 -5 40 C-5.99 40.66 -6.98 41.32 -8 42 C-8.18 28.64 -7.63 15.34 -7 2 C-1.12 0 -1.12 0 0 0 Z " fill="#EAFEFF" transform="translate(148,277)"/>
<path d="M0 0 C0.66 0.33 1.32 0.66 2 1 C0.74 3.32 -0.53 5.63 -1.81 7.94 C-2.17 8.6 -2.53 9.26 -2.89 9.94 C-5.66 14.89 -5.66 14.89 -9 16 C-11.12 16.57 -13.22 17.04 -15.38 17.44 C-18.1 17.95 -18.1 17.95 -21 19.12 C-24.19 20.06 -25.86 19.92 -29 19 C-29.66 17.02 -30.32 15.04 -31 13 C-29.95 12.88 -28.9 12.75 -27.81 12.62 C-24.52 12.09 -22.04 11.27 -19 10 C-18.01 10 -17.02 10 -16 10 C-14.16 9.07 -14.16 9.07 -12.28 7.78 C-11.57 7.32 -10.87 6.87 -10.15 6.4 C-8.67 5.42 -7.19 4.44 -5.72 3.47 C-5.01 3.01 -4.31 2.56 -3.59 2.09 C-2.95 1.67 -2.31 1.24 -1.65 0.8 C-1.1 0.54 -0.56 0.27 0 0 Z " fill="#C0F9F7" transform="translate(146,141)"/>
<path d="M0 0 C0.99 0 1.98 0 3 0 C3.1 0.73 3.2 1.47 3.3 2.22 C5.21 16.04 7.24 29.56 11 43 C11.34 44.31 11.67 45.63 12 46.95 C13.61 53.33 15.42 59.5 17.98 65.58 C19.15 68.36 20.21 71.17 21.25 74 C21.59 74.91 21.92 75.81 22.27 76.75 C23 79 23 79 23 81 C21.16 80.86 21.16 80.86 19 80 C9.64 62.94 5.61 39.13 3 20 C2.81 18.89 2.63 17.77 2.44 16.62 C1.93 12.39 1.91 8.26 2 4 C-0.93 6.85 -3.64 9.65 -6 13 C-5.54 8.08 -3.2 3.72 0 0 Z " fill="#750B05" transform="translate(86,172)"/>
<path d="M0 0 C0.33 0 0.66 0 1 0 C1.98 5.11 2.32 10.13 2.56 15.31 C2.6 16.21 2.65 17.1 2.69 18.02 C3.17 29.34 3.09 40.67 3 52 C2.34 51.67 1.68 51.34 1 51 C1 43.41 1 35.82 1 28 C-0.65 28 -2.3 28 -4 28 C-8.76 28 -10.52 27.22 -14.12 24.25 C-16.31 21.63 -17.11 19.27 -18 16 C-17.32 16.31 -16.63 16.61 -15.93 16.93 C-12.67 18.12 -9.62 18.64 -6.19 19.12 C-4.15 19.41 -2.1 19.7 0 20 C0 13.4 0 6.8 0 0 Z " fill="#9E2B0E" transform="translate(134,251)"/>
<path d="M0 0 C0.99 0 1.98 0 3 0 C4.51 2.77 6.01 5.54 7.5 8.31 C7.93 9.1 8.36 9.88 8.8 10.69 C9.21 11.45 9.61 12.21 10.03 12.99 C10.41 13.68 10.79 14.38 11.17 15.1 C12 17 12 17 12 20 C12.66 20 13.32 20 14 20 C14.95 22.79 15.71 25.1 16 28 C13.52 32.96 9.05 35.17 4 37 C-5.7 39.68 -14.97 40.47 -25 40.38 C-26.88 40.39 -26.88 40.39 -28.79 40.41 C-37.42 40.38 -45.73 39.63 -54 37 C-54.33 36.34 -54.66 35.68 -55 35 C-50.35 35.45 -45.88 36.02 -41.31 37.02 C-36.13 38.07 -31.15 38.35 -25.88 38.31 C-24.97 38.31 -24.06 38.3 -23.13 38.3 C-11.92 38.11 1.25 37.01 11 31 C12.35 26.94 10.93 24.37 9.44 20.56 C9.17 19.86 8.9 19.15 8.62 18.42 C6.13 12.07 3.21 6.01 0 0 Z " fill="#C1301A" transform="translate(163,68)"/>
<path d="M0 0 C0.33 0.66 0.66 1.32 1 2 C-0.33 4.45 -1.7 6.77 -3.19 9.12 C-4.03 10.5 -4.87 11.87 -5.71 13.24 C-6.11 13.9 -6.51 14.55 -6.93 15.23 C-10.78 21.59 -16 30.47 -16 38 C-12.53 39.98 -12.53 39.98 -9 42 C-10.48 42.5 -10.48 42.5 -12 43 C-14.69 41.56 -14.69 41.56 -17 40 C-19.53 45.54 -21.34 51.14 -23 57 C-23.66 56.67 -24.32 56.34 -25 56 C-24.62 49.77 -22.88 44.22 -20.82 38.37 C-19.61 34.93 -18.6 31.59 -18 28 C-17.34 28 -16.68 28 -16 28 C-15.87 26.99 -15.87 26.99 -15.73 25.96 C-14.8 22.2 -13.1 19 -11.25 15.62 C-10.89 14.96 -10.53 14.3 -10.16 13.61 C-3.71 1.86 -3.71 1.86 0 0 Z " fill="#F24528" transform="translate(117,60)"/>
<path d="M0 0 C2.79 2.79 3.39 6.05 4.44 9.75 C4.66 10.51 4.87 11.27 5.1 12.05 C10.25 30.27 10.25 30.27 10 39 C11.32 39.33 12.64 39.66 14 40 C13.67 40.66 13.34 41.32 13 42 C11.68 41.67 10.36 41.34 9 41 C8.67 42.32 8.34 43.64 8 45 C9.65 45.66 11.3 46.32 13 47 C13 47.33 13 47.66 13 48 C10.36 48 7.72 48 5 48 C4.99 47.03 4.97 46.05 4.96 45.05 C4.62 33.54 2.84 22.51 0.64 11.22 C0.3 9.47 0.3 9.47 -0.04 7.69 C-0.25 6.64 -0.46 5.59 -0.67 4.51 C-1 2 -1 2 0 0 Z " fill="#FE8157" transform="translate(145,56)"/>
<path d="M0 0 C2.31 0 4.62 0 7 0 C7 5.94 7 11.88 7 18 C5.35 17.67 3.7 17.34 2 17 C0.88 19.24 0.81 20.65 0.68 23.13 C0.64 23.94 0.6 24.74 0.56 25.57 C0.5 26.84 0.5 26.84 0.44 28.12 C0.39 28.97 0.35 29.82 0.31 30.7 C0.2 32.8 0.1 34.9 0 37 C-2.77 34.23 -2.26 32.55 -2.27 28.67 C-2.27 27.4 -2.27 26.12 -2.27 24.81 C-2.27 24.14 -2.27 23.48 -2.26 22.79 C-2.25 20.77 -2.26 18.76 -2.27 16.74 C-2.27 15.46 -2.27 14.18 -2.27 12.86 C-2.26 11.69 -2.26 10.52 -2.26 9.31 C-1.99 5.91 -1.21 3.17 0 0 Z " fill="#FED39E" transform="translate(135,174)"/>
<path d="M0 0 C1.02 3.35 1.1 6.37 1.06 9.87 C1.05 11 1.05 12.13 1.04 13.3 C1.01 15.68 0.99 18.05 0.96 20.43 C0.95 21.56 0.95 22.7 0.94 23.87 C0.93 24.9 0.91 25.93 0.9 27 C1 30.08 1.45 32.97 2 36 C2.06 37.62 2.09 39.25 2.06 40.88 C2.05 41.66 2.04 42.44 2.04 43.24 C2.02 43.82 2.01 44.4 2 45 C2.66 45 3.32 45 4 45 C4 47.97 4 50.94 4 54 C2.68 53.67 1.36 53.34 0 53 C-7.72 39.19 -4.04 14.58 0 0 Z " fill="#FFEE80" transform="translate(123,280)"/>
<path d="M0 0 C0.66 0 1.32 0 2 0 C4.13 7.61 4.37 15.04 4.37 22.9 C4.37 25.03 4.41 27.17 4.45 29.3 C4.51 36.72 3.94 43.7 2.23 50.93 C2.07 51.61 1.92 52.3 1.76 53 C0.98 55.92 0.49 57.65 -2.01 59.44 C-4 60 -4 60 -6 60 C-5.57 57.05 -4.93 54.87 -3.56 52.2 C3.99 36.75 1.75 16.61 0 0 Z " fill="#FFF08B" transform="translate(153,277)"/>
<path d="M0 0 C0.33 0 0.66 0 1 0 C2.19 6.28 2.19 12.4 2.19 18.78 C2.19 20.8 2.21 22.82 2.22 24.84 C2.24 31.91 1.81 38.16 0 45 C0 45.99 0 46.98 0 48 C-2.38 51.19 -2.38 51.19 -5 54 C-5.66 54 -6.32 54 -7 54 C-6.67 52.68 -6.34 51.36 -6 50 C-6.66 50 -7.32 50 -8 50 C-7.7 49.43 -7.4 48.86 -7.09 48.27 C-6.06 46.11 -5.25 44.02 -4.5 41.75 C-4.26 41.04 -4.03 40.34 -3.78 39.61 C-3.52 38.75 -3.27 37.89 -3 37 C-2.65 35.89 -2.3 34.78 -1.95 33.64 C-0.37 27.22 -0.53 20.57 -0.38 14 C-0.34 12.64 -0.3 11.28 -0.26 9.92 C-0.16 6.61 -0.08 3.31 0 0 Z " fill="#FFEA5E" transform="translate(157,290)"/>
<path d="M0 0 C1.65 0.33 3.3 0.66 5 1 C4.34 1.66 3.68 2.32 3 3 C2.75 5.75 2.75 5.75 2.88 8.96 C2.89 10.15 2.91 11.35 2.92 12.58 C2.97 15.1 3.03 17.63 3.08 20.15 C3.09 21.34 3.11 22.54 3.12 23.77 C3.15 24.87 3.17 25.97 3.2 27.1 C3 30 3 30 1 34 C0.67 27.07 0.34 20.14 0 13 C-2.52 18.7 -2.52 18.7 -4 24.38 C-4.33 25.57 -4.66 26.77 -5 28 C-5.99 28.33 -6.98 28.66 -8 29 C-8.36 23.12 -7.17 18.68 -5.12 13.19 C-4.86 12.43 -4.59 11.66 -4.31 10.88 C-2.28 5.28 -2.28 5.28 0 3 C0 2.01 0 1.02 0 0 Z " fill="#FE8B5E" transform="translate(136,38)"/>
<path d="M0 0 C5.56 4.06 8.36 8.31 10 15 C10.97 23.22 9.31 31.13 4.62 38.03 C3.25 39.69 3.25 39.69 1 42 C1 39 1 39 2.96 36.3 C5.31 32.5 5.66 29.59 5.56 25.25 C5.55 24.55 5.55 23.85 5.54 23.12 C5.22 14.65 1.63 8.25 -4 2 C-2.02 2.99 -2.02 2.99 0 4 C0 3.67 0 3.34 0 3 C0 2.01 0 1.02 0 0 Z " fill="#F9E1D7" transform="translate(157,125)"/>
<path d="M0 0 C5.94 0 11.88 0 18 0 C17.01 0.5 17.01 0.5 16 1 C16.33 3.97 16.66 6.94 17 10 C11.39 10 5.78 10 0 10 C0 6.7 0 3.4 0 0 Z " fill="#FEE4A8" transform="translate(130,109)"/>
<path d="M0 0 C0.33 0.66 0.66 1.32 1 2 C0.06 4.12 0.06 4.12 -1 6 C0.62 6.19 2.25 6.38 3.88 6.56 C4.78 6.67 5.68 6.77 6.62 6.88 C9.02 7.2 9.02 7.2 11 6 C9.64 10.44 7.87 12.45 4 15 C-0.45 16.93 -4.18 17.19 -9 17 C-7.51 12.96 -5.57 9.39 -3.38 5.69 C-2.74 4.62 -2.11 3.55 -1.46 2.45 C-0.98 1.64 -0.5 0.83 0 0 Z " fill="#2BECF3" transform="translate(145,152)"/>
<path d="M0 0 C0.57 0.07 1.13 0.14 1.71 0.22 C11.36 1.27 21 1.11 30.69 1.06 C32.47 1.06 34.25 1.05 36.03 1.05 C40.35 1.04 44.68 1.02 49 1 C45.67 2.78 42.76 3.49 39 4 C38.67 6.64 38.34 9.28 38 12 C37.01 12.33 36.02 12.66 35 13 C34 12 34 12 33.9 10.15 C33.93 8.1 33.97 6.05 34 4 C29.05 4 24.1 4 19 4 C19 6.64 19 9.28 19 12 C17.02 12.99 17.02 12.99 15 14 C14.34 10.7 13.68 7.4 13 4 C8.71 3.01 4.42 2.02 0 1 C0 0.67 0 0.34 0 0 Z " fill="#FD9069" transform="translate(112,106)"/>
<path d="M0 0 C4.33 4.14 4.39 7.95 4.94 13.75 C5.64 20.85 6.5 27.88 7.63 34.92 C8.04 38.31 8.06 41.6 8 45 C7.34 44.67 6.68 44.34 6 44 C5.31 41.55 5.31 41.55 4.71 38.31 C4.49 37.14 4.27 35.96 4.05 34.75 C3.83 33.52 3.6 32.28 3.38 31 C3.03 29.19 3.03 29.19 2.68 27.34 C1.48 20.78 0.73 14.66 1 8 C-2.34 9.11 -3.64 10.47 -6 13 C-5.04 10.35 -4.14 8.19 -2.44 5.94 C-0.94 3.92 -0.44 2.45 0 0 Z " fill="#F98155" transform="translate(88,164)"/>
<path d="M0 0 C0.33 0.66 0.66 1.32 1 2 C0.29 3.7 0.29 3.7 -0.87 5.7 C-1.28 6.41 -1.69 7.13 -2.11 7.86 C-2.55 8.61 -2.99 9.36 -3.44 10.12 C-3.87 10.88 -4.31 11.63 -4.75 12.41 C-5.83 14.28 -6.91 16.14 -8 18 C-0.83 16.9 6.05 15.79 10.75 9.75 C11.16 9.17 11.57 8.59 12 8 C12.99 8 13.98 8 15 8 C14.15 12.06 13.04 14.32 9.75 16.75 C3.18 20.94 -3.29 21.86 -11 21 C-11.66 20.34 -12.32 19.68 -13 19 C-8.71 12.73 -4.42 6.46 0 0 Z " fill="#F2FEFE" transform="translate(144,151)"/>
<path d="M0 0 C2.12 0.38 2.12 0.38 4 1 C2.41 6.09 -0.74 9.87 -4 14 C-7.33 13.26 -9.42 12.3 -12 10 C-12 9.34 -12 8.68 -12 8 C-13.32 7.34 -14.64 6.68 -16 6 C-12.18 3.87 -8.51 3.27 -4.24 2.56 C-1.82 2.16 -1.82 2.16 0 0 Z " fill="#8BF5F7" transform="translate(134,156)"/>
<path d="M0 0 C0 3.6 -0.98 6.61 -2.06 10 C-2.39 11.03 -2.39 11.03 -2.72 12.09 C-4.6 17.91 -6.61 23.69 -8.69 29.44 C-8.98 30.27 -9.28 31.11 -9.59 31.97 C-9.87 32.74 -10.16 33.51 -10.45 34.31 C-10.7 35 -10.95 35.69 -11.21 36.4 C-12 38 -12 38 -14 39 C-12.82 33.02 -11.17 27.56 -9.02 21.86 C-7.4 17.32 -6.19 12.67 -5 8 C-5.79 8.28 -6.58 8.55 -7.39 8.84 C-15.32 11.48 -22.65 12.73 -31 13 C-31 12.34 -31 11.68 -31 11 C-29.33 10.74 -29.33 10.74 -27.63 10.48 C-12.24 8.55 -12.24 8.55 0 0 Z " fill="#F67050" transform="translate(180,213)"/>
<path d="M0 0 C0.33 0 0.66 0 1 0 C1.21 8.55 0.61 16.78 -0.5 25.25 C-0.64 26.39 -0.79 27.53 -0.93 28.7 C-1.28 31.47 -1.64 34.23 -2 37 C-2.33 37 -2.66 37 -3 37 C-3.33 27.76 -3.66 18.52 -4 9 C-4.92 12.69 -5.1 15.48 -5.06 19.25 C-5.05 20.33 -5.04 21.41 -5.04 22.52 C-5.02 23.34 -5.01 24.16 -5 25 C-7.07 21.9 -7.24 21.27 -7.2 17.77 C-7.19 16.97 -7.18 16.16 -7.18 15.34 C-7.16 14.5 -7.14 13.67 -7.12 12.81 C-7.12 11.97 -7.11 11.12 -7.1 10.25 C-7.07 8.17 -7.04 6.08 -7 4 C-4.53 4.5 -4.53 4.5 -2 5 C-1.34 3.35 -0.68 1.7 0 0 Z " fill="#F7A362" transform="translate(142,215)"/>
<path d="M0 0 C0.94 3.23 0.82 5.47 0.27 8.78 C-0.34 13.76 -0.18 18.8 -0.19 23.81 C-0.2 24.94 -0.21 26.06 -0.22 27.22 C-0.24 34.08 0.42 40.33 2 47 C2.34 49 2.68 51 3 53 C0 53 0 53 -1.66 51.46 C-3.49 48.1 -3.39 45.51 -3.4 41.7 C-3.4 40.63 -3.4 40.63 -3.41 39.54 C-3.41 38.02 -3.4 36.51 -3.39 35 C-3.38 32.73 -3.39 30.47 -3.41 28.21 C-3.42 18.45 -2.3 9.49 0 0 Z " fill="#FFEA5F" transform="translate(121,284)"/>
<path d="M0 0 C1.65 0 3.3 0 5 0 C5.03 3.29 5.05 6.58 5.06 9.88 C5.07 10.81 5.08 11.75 5.09 12.71 C5.09 13.61 5.09 14.51 5.1 15.43 C5.1 16.26 5.11 17.08 5.11 17.94 C5 20 5 20 4 22 C3.34 22 2.68 22 2 22 C1.34 23.98 0.68 25.96 0 28 C-1.02 24.68 -1.04 21.82 -0.88 18.36 C-0.81 16.75 -0.81 16.75 -0.73 15.12 C-0.68 14.01 -0.62 12.89 -0.56 11.75 C-0.48 10.06 -0.48 10.06 -0.4 8.34 C-0.27 5.56 -0.14 2.78 0 0 Z " fill="#FCEC84" transform="translate(141,279)"/>
<path d="M0 0 C0.66 0.33 1.32 0.66 2 1 C2.05 5.05 2.09 9.11 2.11 13.16 C2.12 14.53 2.13 15.9 2.15 17.28 C2.44 40.18 2.44 40.18 -1.57 44.83 C-2.04 45.21 -2.52 45.6 -3 46 C-3 44.68 -3 43.36 -3 42 C-3.99 42.5 -3.99 42.5 -5 43 C-4.71 41.44 -4.42 39.87 -4.12 38.31 C-3.96 37.44 -3.8 36.57 -3.63 35.68 C-3 33 -3 33 -1.99 30.75 C-0.83 27.51 -0.68 24.82 -0.59 21.39 C-0.55 20.14 -0.51 18.89 -0.47 17.61 C-0.42 15.67 -0.42 15.67 -0.38 13.69 C-0.34 12.37 -0.3 11.06 -0.26 9.71 C-0.16 6.47 -0.08 3.24 0 0 Z " fill="#B5FCFC" transform="translate(148,277)"/>
<path d="M0 0 C1.08 3.25 0.87 3.87 0 7 C-0.79 15.08 0.72 21.48 5.88 27.81 C10.1 32.4 14.29 34.64 20.48 35.24 C27.31 35.43 32.02 34.24 38 31 C39.33 30.33 40.66 29.66 42 29 C42 29.66 42 30.32 42 31 C36.09 36.27 33.06 37.18 25.31 37.19 C24.52 37.2 23.73 37.21 22.92 37.22 C16.65 37.24 11.2 37.07 6.42 32.57 C5.68 31.62 4.95 30.67 4.19 29.69 C3.44 28.74 2.69 27.8 1.92 26.82 C-1.64 21.59 -2.28 17.77 -2.25 11.44 C-2.26 10.14 -2.26 8.84 -2.27 7.5 C-2.03 4.33 -1.68 2.63 0 0 Z " fill="#80A8A0" transform="translate(115,136)"/>
<path d="M0 0 C0 3.97 -1.49 5.52 -3.69 8.81 C-8.63 16.49 -11.37 24.52 -13.97 33.26 C-15.26 36.68 -17.03 37.97 -20 40 C-20 26.95 -9.18 9.18 0 0 Z " fill="#FE9067" transform="translate(123,54)"/>
<path d="M0 0 C1.65 0 3.3 0 5 0 C5.33 8.91 5.66 17.82 6 27 C5.67 26.34 5.34 25.68 5 25 C4.34 25 3.68 25 3 25 C0.11 16.56 -0.35 8.89 0 0 Z " fill="#FAEE8E" transform="translate(130,279)"/>
<path d="M0 0 C0.66 0 1.32 0 2 0 C3.28 4.91 3.15 9.77 3.12 14.81 C3.13 15.68 3.13 16.54 3.14 17.43 C3.12 25.91 2.24 33.11 -1 41 C-1.33 41 -1.66 41 -2 41 C-2.13 33.44 -2.13 33.44 -1.51 31.29 C-0.84 28.27 -0.78 25.36 -0.68 22.27 C-0.62 20.32 -0.62 20.32 -0.56 18.34 C-0.52 16.98 -0.48 15.61 -0.44 14.25 C-0.39 12.87 -0.35 11.49 -0.31 10.11 C-0.2 6.74 -0.1 3.37 0 0 Z " fill="#F3FBE7" transform="translate(150,279)"/>
<path d="M0 0 C0.33 0 0.66 0 1 0 C1.05 0.96 1.1 1.91 1.15 2.89 C1.6 10.74 2.35 18.3 4 26 C4.66 26 5.32 26 6 26 C7.26 28.52 7.1 30.31 7.06 33.12 C7.05 34.04 7.04 34.95 7.04 35.88 C7.02 36.58 7.01 37.28 7 38 C6.67 37.34 6.34 36.68 6 36 C5.34 36 4.68 36 4 36 C1.4 30.11 -0.13 25.66 -0.1 19.14 C-0.09 18.03 -0.09 16.91 -0.09 15.76 C-0.08 14.6 -0.07 13.44 -0.06 12.25 C-0.06 11.08 -0.05 9.9 -0.05 8.69 C-0.04 5.79 -0.02 2.9 0 0 Z " fill="#FBFBE7" transform="translate(129,278)"/>
<path d="M0 0 C0.33 0 0.66 0 1 0 C1.94 5.53 2.12 10.84 2.06 16.44 C2.06 17.26 2.05 18.09 2.05 18.94 C2.04 20.96 2.02 22.98 2 25 C5.96 24.67 9.92 24.34 14 24 C11.05 25.97 9.94 26.34 6.56 26.69 C5.8 26.77 5.04 26.86 4.25 26.95 C1.97 27 0.18 26.66 -2 26 C-2.33 17.14 -1.32 8.74 0 0 Z " fill="#FCA77D" transform="translate(148,79)"/>
<path d="M0 0 C0.99 0.33 1.98 0.66 3 1 C1.88 3.97 0.78 6.33 -1 9 C-2.67 9.04 -4.33 9.04 -6 9 C-6.66 9.66 -7.32 10.32 -8 11 C-9.88 11.38 -9.88 11.38 -12 11.56 C-14.38 11.78 -15.85 11.92 -18 13 C-18.66 12.34 -19.32 11.68 -20 11 C-18.97 10.57 -17.94 10.13 -16.88 9.69 C-11.29 7.28 -6.37 4.7 -1.61 0.89 C-1.08 0.6 -0.55 0.3 0 0 Z " fill="#A9F7F6" transform="translate(140,148)"/>
<path d="M0 0 C0.66 0.33 1.32 0.66 2 1 C2 3.97 2 6.94 2 10 C5.47 11.98 5.47 11.98 9 14 C8.01 14.33 7.02 14.66 6 15 C3.31 13.56 3.31 13.56 1 12 C-1.53 17.54 -3.34 23.14 -5 29 C-5.66 28.67 -6.32 28.34 -7 28 C-6.62 21.77 -4.88 16.22 -2.82 10.37 C-1.61 6.93 -0.6 3.59 0 0 Z " fill="#F44327" transform="translate(99,88)"/>
<path d="M0 0 C0.33 0 0.66 0 1 0 C1.05 7.06 1.09 14.12 1.11 21.19 C1.12 23.58 1.13 25.98 1.15 28.38 C1.18 31.84 1.19 35.31 1.2 38.77 C1.21 39.83 1.22 40.89 1.23 41.98 C1.23 48.72 0.96 55.5 -1 62 C-1.99 62.5 -1.99 62.5 -3 63 C-2.86 60.5 -2.71 58 -2.56 55.5 C-2.52 54.8 -2.48 54.11 -2.44 53.39 C-2.4 52.69 -2.36 52 -2.32 51.28 C-2.28 50.65 -2.24 50.02 -2.21 49.38 C-2.03 47.35 -1.77 45.33 -1.5 43.31 C-0.92 38.77 -0.78 34.26 -0.68 29.69 C-0.66 28.83 -0.64 27.98 -0.62 27.1 C-0.56 24.4 -0.5 21.7 -0.44 19 C-0.39 17.16 -0.35 15.32 -0.31 13.47 C-0.2 8.98 -0.1 4.49 0 0 Z " fill="#EC3823" transform="translate(169,135)"/>
<path d="M0 0 C1.88 0.19 1.88 0.19 4 1 C6.22 5.14 6.42 9.27 6.44 13.88 C6.44 14.59 6.44 15.3 6.45 16.03 C6.31 21.95 5.19 24.91 1 29 C0.67 29 0.34 29 0 29 C0 26 0 23 0 20 C0.66 20 1.32 20 2 20 C2.05 17.79 2.09 15.58 2.12 13.38 C2.16 11.53 2.16 11.53 2.2 9.65 C2 6.06 1.3 3.33 0 0 Z " fill="#59F0E8" transform="translate(157,136)"/>
<path d="M0 0 C2.47 0.99 2.47 0.99 5 2 C4.01 2.5 4.01 2.5 3 3 C3.33 15.87 3.66 28.74 4 42 C3.67 42 3.34 42 3 42 C0.72 27.89 -0.42 14.29 0 0 Z " fill="#FF8C5A" transform="translate(127,172)"/>
<path d="M0 0 C2.31 0 4.62 0 7 0 C7 5.94 7 11.88 7 18 C4.53 17.01 4.53 17.01 2 16 C2 11.05 2 6.1 2 1 C1.34 0.67 0.68 0.34 0 0 Z " fill="#FFE8AD" transform="translate(135,174)"/>
<path d="M0 0 C0.66 0 1.32 0 2 0 C2.24 7.17 1.6 13.84 0.25 20.88 C0.09 21.8 -0.06 22.72 -0.23 23.67 C-0.39 24.56 -0.56 25.45 -0.73 26.37 C-0.88 27.16 -1.03 27.96 -1.18 28.78 C-2.21 31.58 -3.79 33.03 -6 35 C-5.31 30.66 -4.61 26.32 -3.92 21.98 C-3.68 20.5 -3.45 19.02 -3.21 17.55 C-2.87 15.42 -2.53 13.3 -2.19 11.17 C-1.99 9.89 -1.78 8.62 -1.57 7.3 C-1.14 4.82 -0.66 2.42 0 0 Z " fill="#FB8356" transform="translate(184,178)"/>
<path d="M0 0 C0.66 0.33 1.32 0.66 2 1 C0.88 2.34 -0.24 3.67 -1.38 5 C-2.31 6.11 -2.31 6.11 -3.27 7.25 C-4.13 8.12 -4.13 8.12 -5 9 C-5.66 9 -6.32 9 -7 9 C-8.22 12.8 -8.13 16.47 -8.12 20.44 C-8.13 21.74 -8.13 23.03 -8.13 24.37 C-8.02 27.4 -7.71 30.06 -7 33 C-10.1 30.03 -10.96 28.79 -11.2 24.33 C-11.22 22.83 -11.24 21.32 -11.25 19.81 C-11.27 19.07 -11.29 18.33 -11.31 17.56 C-11.35 12.31 -10.53 8.63 -8 4 C-5.5 3.25 -5.5 3.25 -3 3 C-1.21 1.54 -1.21 1.54 0 0 Z " fill="#F6EBE6" transform="translate(122,127)"/>
<path d="M0 0 C0.66 0.33 1.32 0.66 2 1 C2.03 3.6 2.05 6.21 2.06 8.81 C2.07 9.55 2.08 10.29 2.09 11.05 C2.1 14.3 2.04 16.89 1 20 C0.96 22 0.96 24 1 26 C0.34 26.33 -0.32 26.66 -1 27 C-1.33 25.68 -1.66 24.36 -2 23 C-2.66 23.33 -3.32 23.66 -4 24 C-3.36 18.45 -2.5 12.99 -1.44 7.5 C-1.23 6.41 -1.23 6.41 -1.02 5.3 C-0.68 3.53 -0.34 1.77 0 0 Z " fill="#880D0B" transform="translate(187,178)"/>
<path d="M0 0 C0.46 0.33 0.92 0.65 1.4 0.99 C11.85 7.99 23.83 9.13 36 11 C36 11.66 36 12.32 36 13 C10.75 11.92 10.75 11.92 2 4 C0.79 1.84 0.79 1.84 0 0 Z " fill="#F3462E" transform="translate(97,212)"/>
<path d="M0 0 C6 2.59 8.01 7.58 10.39 13.43 C12.42 18.94 14.19 24.17 15 30 C12 29 12 29 10.8 27.29 C10.45 26.6 10.11 25.9 9.75 25.19 C9.39 24.5 9.04 23.81 8.67 23.11 C8 21 8 21 8.6 19.14 C9.25 15.65 7.41 13.5 5.69 10.5 C5.05 9.38 4.42 8.25 3.76 7.09 C3.18 6.07 2.6 5.05 2 4 C1.32 2.67 0.65 1.34 0 0 Z " fill="#9B140E" transform="translate(188,166)"/>
<path d="M0 0 C0.33 0 0.66 0 1 0 C1 12.87 1 25.74 1 39 C0.34 39 -0.32 39 -1 39 C-2.23 31.87 -1.98 24.84 -1.7 17.63 C-1.62 15.54 -1.56 13.45 -1.49 11.36 C-1.13 1.13 -1.13 1.13 0 0 Z " fill="#FE9768" transform="translate(146,173)"/>
<path d="M0 0 C0.89 2.49 1.08 3.73 0.29 6.29 C-0.07 7.06 -0.44 7.83 -0.81 8.62 C-1.35 9.79 -1.35 9.79 -1.89 10.98 C-3 13 -3 13 -5 15 C-11.21 15.56 -11.21 15.56 -13.94 13.62 C-15 12 -15 12 -15 10 C-15.99 9.67 -16.98 9.34 -18 9 C-18 6.69 -18 4.38 -18 2 C-15 3.5 -14.44 6.05 -13 9 C-11.18 11.23 -11.18 11.23 -8.56 11.31 C-6.02 11.2 -6.02 11.2 -4.31 9.88 C-2.58 7.4 -1.86 4.88 -1 2 C-0.67 1.34 -0.34 0.68 0 0 Z " fill="#E0F7CD" transform="translate(147,320)"/>
<path d="M0 0 C1.02 3.35 1.1 6.37 1.06 9.87 C1.05 11 1.05 12.13 1.04 13.3 C1.01 15.68 0.99 18.05 0.96 20.43 C0.95 21.56 0.95 22.7 0.94 23.87 C0.93 24.9 0.91 25.93 0.9 27 C1 30.08 1.45 32.97 2 36 C2.06 37.62 2.09 39.25 2.06 40.88 C2.05 41.66 2.04 42.44 2.04 43.24 C2.02 43.82 2.01 44.4 2 45 C2.66 45 3.32 45 4 45 C4 47.97 4 50.94 4 54 C3.34 52.68 2.68 51.36 2 50 C1.64 49.33 1.28 48.67 0.91 47.98 C-2.57 40.44 -1.15 30.14 -1.13 21.96 C-1.12 19.61 -1.13 17.26 -1.14 14.91 C-1.14 13.41 -1.13 11.91 -1.13 10.41 C-1.13 9.71 -1.14 9.01 -1.14 8.29 C-1.12 5.25 -0.97 2.91 0 0 Z " fill="#FFF199" transform="translate(123,280)"/>
<path d="M0 0 C4.46 1.4 7 3.43 10 7 C11.97 11.65 12.25 15.89 12.12 20.88 C12.12 21.56 12.11 22.25 12.1 22.96 C12.07 24.64 12.04 26.32 12 28 C11.34 27.67 10.68 27.34 10 27 C9.62 24.02 9.62 24.02 9.44 20.25 C9.22 16.06 8.94 12.09 8 8 C6.02 8.33 4.04 8.66 2 9 C1.86 7.89 1.71 6.77 1.56 5.62 C1.22 2.18 1.22 2.18 0 0 Z " fill="#B9F7ED" transform="translate(148,129)"/>
<path d="M0 0 C1.28 3.93 1.19 7.91 1.19 12 C1.19 13.12 1.19 13.12 1.19 14.27 C1.13 20.65 0.35 26.76 -1 33 C-1.33 33 -1.66 33 -2 33 C-2 22.44 -2 11.88 -2 1 C-1.34 0.67 -0.68 0.34 0 0 Z " fill="#FF7F54" transform="translate(149,172)"/>
<path d="M0 0 C0.99 0 1.98 0 3 0 C4.51 2.77 6.01 5.54 7.5 8.31 C7.93 9.1 8.36 9.88 8.8 10.69 C9.21 11.45 9.61 12.21 10.03 12.99 C10.41 13.68 10.79 14.38 11.17 15.1 C12 17 12 17 12 20 C12.66 20 13.32 20 14 20 C14.62 23.38 14.62 23.38 15 27 C14.34 27.66 13.68 28.32 13 29 C12.8 28.48 12.61 27.95 12.41 27.41 C8.8 18.06 4.48 8.97 0 0 Z " fill="#E14025" transform="translate(163,68)"/>
<path d="M0 0 C-1.03 2.12 -2.11 4.19 -3.3 6.23 C-9.42 16.84 -13.26 28.37 -17 40 C-18.27 36.41 -17.71 34.24 -16.52 30.68 C-16.18 29.65 -15.84 28.62 -15.49 27.56 C-15.12 26.49 -14.75 25.42 -14.38 24.31 C-14.03 23.26 -13.69 22.21 -13.33 21.13 C-6.21 0 -6.21 0 0 0 Z " fill="#9C100F" transform="translate(88,166)"/>
<path d="M0 0 C1.79 0.02 1.79 0.02 3.62 0.04 C5.42 0.05 5.42 0.05 7.25 0.06 C8.18 0.07 9.1 0.09 10.06 0.1 C10.06 3.1 10.06 3.1 8.87 4.85 C7.06 6.1 7.06 6.1 4.43 5.72 C3.65 5.52 2.87 5.31 2.06 5.1 C1.73 5.43 1.4 5.76 1.06 6.1 C-0.61 6.14 -2.28 6.14 -3.94 6.1 C-3.98 4.43 -3.98 2.76 -3.94 1.1 C-2.94 0.1 -2.94 0.1 0 0 Z " fill="#C64206" transform="translate(144.94140625,272.90234375)"/>
<path d="M0 0 C2 3 2 3 1.66 4.73 C1.44 5.48 1.22 6.23 1 7 C0.78 9.41 0.59 11.83 0.44 14.25 C0.35 15.51 0.27 16.78 0.18 18.08 C0.12 19.04 0.06 20.01 0 21 C-1.65 20.67 -3.3 20.34 -5 20 C-5.41 14.27 -4.85 10.85 -1.97 5.86 C-0.96 3.92 -0.45 2.13 0 0 Z " fill="#FFD39C" transform="translate(135,84)"/>
<path d="M0 0 C0 3 0 3 -2.31 5.44 C-10.8 12.11 -21.61 13.21 -32 13 C-32 12.34 -32 11.68 -32 11 C-30.35 10.74 -30.35 10.74 -28.67 10.48 C-12.89 8.4 -12.89 8.4 0 0 Z " fill="#802D12" transform="translate(180,211)"/>
<path d="M0 0 C1.33 4 0.24 5.57 -1.31 9.44 C-1.76 10.57 -2.21 11.7 -2.68 12.87 C-3.71 15.31 -4.81 17.64 -6 20 C-6.37 21.32 -6.69 22.66 -7 24 C-7.66 26.33 -8.33 28.67 -9 31 C-9.66 31 -10.32 31 -11 31 C-10.36 25.86 -9.32 21.01 -8 16 C-7.34 16 -6.68 16 -6 16 C-5.88 15.42 -5.76 14.84 -5.63 14.24 C-3.71 5.27 -3.71 5.27 -2 1 C-1.34 0.67 -0.68 0.34 0 0 Z " fill="#B22617" transform="translate(77,190)"/>
<path d="M0 0 C0.99 0 1.98 0 3 0 C3.54 3.37 4.05 6.75 4.56 10.12 C4.71 11.08 4.87 12.03 5.02 13.01 C5.76 17.93 6.25 22.09 5 27 C2.52 24.52 2.71 23.64 2.59 20.21 C2.55 19.27 2.51 18.33 2.47 17.36 C2.44 16.37 2.41 15.39 2.38 14.38 C2.34 13.38 2.3 12.39 2.26 11.37 C2.16 8.91 2.08 6.46 2 4 C-0.91 6.87 -3.64 9.65 -6 13 C-5.54 8.08 -3.2 3.72 0 0 Z " fill="#94120E" transform="translate(86,172)"/>
<path d="M0 0 C0.33 0 0.66 0 1 0 C1.18 4.83 1.29 9.42 0.06 14.12 C-1.67 20.92 -1.67 28.02 -2 35 C-2.33 35 -2.66 35 -3 35 C-4.06 23.02 -4.9 11.32 0 0 Z " fill="#FFE7AF" transform="translate(146,70)"/>
<path d="M0 0 C4.79 3.2 4.79 3.2 5.75 6.94 C5.87 8.45 5.87 8.45 6 10 C6.17 10.73 6.34 11.45 6.51 12.2 C7.13 15.75 7.11 19.23 7.06 22.81 C7.06 23.51 7.05 24.2 7.05 24.91 C7.04 26.61 7.02 28.3 7 30 C6.67 30 6.34 30 6 30 C5.99 29.18 5.97 28.36 5.96 27.51 C5.52 17.25 2.94 9.71 -4 2 C-2.02 2.99 -2.02 2.99 0 4 C0 3.67 0 3.34 0 3 C0 2.01 0 1.02 0 0 Z " fill="#C6C8BF" transform="translate(157,125)"/>
<path d="M0 0 C0.33 0.66 0.66 1.32 1 2 C-0.98 4.97 -0.98 4.97 -3 8 C-7.95 7.67 -12.9 7.34 -18 7 C-18 6.34 -18 5.68 -18 5 C-9.57 2.71 -9.57 2.71 -5 3 C-4.67 2.34 -4.34 1.68 -4 1 C-3.01 1 -2.02 1 -1 1 C-0.67 0.67 -0.34 0.34 0 0 Z " fill="#B92013" transform="translate(160,266)"/>
<path d="M0 0 C0.66 0 1.32 0 2 0 C4.24 7.84 4.31 15.48 4.26 23.56 C4.25 25.82 4.26 28.09 4.27 30.36 C4.27 31.81 4.27 33.26 4.27 34.71 C4.26 36.01 4.26 37.32 4.26 38.66 C4 42 4 42 2 46 C2.33 35.11 2.66 24.22 3 13 C2.34 13 1.68 13 1 13 C0.67 8.71 0.34 4.42 0 0 Z " fill="#FEEE7C" transform="translate(153,277)"/>
<path d="M0 0 C0.66 0.33 1.32 0.66 2 1 C2.62 31.33 2.62 31.33 -1 44 C-1.66 44 -2.32 44 -3 44 C-3.33 44.66 -3.66 45.32 -4 46 C-3.54 41.37 -3.07 38.14 -1 34 C0.22 26.84 0.11 19.74 0.06 12.5 C0.06 11.3 0.05 10.09 0.05 8.85 C0.04 5.9 0.02 2.95 0 0 Z " fill="#FEF7C0" transform="translate(152,278)"/>
<path d="M0 0 C1.57 4.72 -0.11 8.88 -1.25 13.62 C-1.47 14.6 -1.69 15.58 -1.91 16.59 C-2.24 17.99 -2.24 17.99 -2.58 19.41 C-2.78 20.27 -2.98 21.12 -3.18 22.01 C-3.45 22.66 -3.72 23.32 -4 24 C-4.99 24.33 -5.98 24.66 -7 25 C-7.37 19.08 -6.14 14.64 -4.06 9.12 C-3.78 8.35 -3.51 7.58 -3.22 6.79 C-1.17 1.17 -1.17 1.17 0 0 Z " fill="#FEA889" transform="translate(135,42)"/>
<path d="M0 0 C0.99 0.5 0.99 0.5 2 1 C2 1.66 2 2.32 2 3 C3.32 2.67 4.64 2.34 6 2 C6 4.64 6 7.28 6 10 C6.66 10 7.32 10 8 10 C8 7.03 8 4.06 8 1 C8.33 1 8.66 1 9 1 C9.33 2.98 9.66 4.96 10 7 C10.99 6.01 11.98 5.02 13 4 C12.38 9.54 12.38 9.54 10.44 11.88 C9.73 12.43 9.73 12.43 9 13 C7.02 12.34 5.04 11.68 3 11 C3 10.34 3 9.68 3 9 C3.66 9 4.32 9 5 9 C5 8.34 5 7.68 5 7 C4.34 7 3.68 7 3 7 C3 6.34 3 5.68 3 5 C2.01 5 1.02 5 0 5 C0 3.35 0 1.7 0 0 Z " fill="#C4EFEE" transform="translate(131,311)"/>
<path d="M0 0 C0.57 0.29 1.15 0.58 1.74 0.88 C8.4 4.19 14.65 6.68 22 8 C21.67 8.66 21.34 9.32 21 10 C14.93 8.96 9.56 7.66 4 5 C4 7.31 4 9.62 4 12 C1.58 9.58 1.47 8.2 0.88 4.88 C0.71 3.96 0.54 3.05 0.37 2.12 C0.25 1.42 0.12 0.72 0 0 Z " fill="#FC6146" transform="translate(97,215)"/>
<path d="M0 0 C0.33 0 0.66 0 1 0 C1.94 29.11 1.94 29.11 -3 39 C-5.64 40.89 -5.64 40.89 -8 42 C-7.7 41.43 -7.4 40.86 -7.09 40.27 C-6.06 38.11 -5.25 36.02 -4.5 33.75 C-4.26 33.04 -4.03 32.34 -3.78 31.61 C-1.58 24.25 -0.63 17.67 -0.38 10 C-0.32 8.55 -0.32 8.55 -0.26 7.07 C-0.16 4.72 -0.08 2.36 0 0 Z " fill="#FFEC6D" transform="translate(157,298)"/>
<path d="M0 0 C5.28 0 10.56 0 16 0 C16 1.65 16 3.3 16 5 C6.26 5 6.26 5 3 3 C2.01 2.01 1.02 1.02 0 0 Z " fill="#C03D06" transform="translate(119,274)"/>
<path d="M0 0 C0.68 0.31 1.37 0.61 2.07 0.93 C5.33 2.12 8.38 2.64 11.81 3.12 C13.55 3.38 13.55 3.38 15.33 3.63 C16.65 3.81 16.65 3.81 18 4 C18 4.99 18 5.98 18 7 C15.56 7.14 13.13 7.23 10.69 7.31 C9.65 7.38 9.65 7.38 8.6 7.44 C6.57 7.49 6.57 7.49 3 7 C1.01 4.59 0 3.15 0 0 Z " fill="#BB2510" transform="translate(116,267)"/>
<path d="M0 0 C2.35 2.25 3.87 3.71 4.2 7.06 C4.22 7.84 4.23 8.63 4.25 9.44 C4.29 10.61 4.29 10.61 4.33 11.81 C4 14 4 14 1 17 C1 14.03 1 11.06 1 8 C-2.34 9.11 -3.64 10.47 -6 13 C-5.04 10.35 -4.14 8.19 -2.44 5.94 C-0.94 3.92 -0.44 2.45 0 0 Z " fill="#FC683E" transform="translate(88,164)"/>
<path d="M0 0 C0.33 0 0.66 0 1 0 C1.33 2.31 1.66 4.62 2 7 C-9.52 8.52 -9.52 8.52 -15 6 C-15 5.67 -15 5.34 -15 5 C-12.36 4.67 -9.72 4.34 -7 4 C-7.33 3.01 -7.66 2.02 -8 1 C-7.01 1 -6.02 1 -5 1 C-5 1.99 -5 2.98 -5 4 C-4.01 4 -3.02 4 -2 4 C-1.34 2.68 -0.68 1.36 0 0 Z " fill="#FD9F77" transform="translate(129,98)"/>
<path d="M0 0 C0.39 0.54 0.78 1.07 1.19 1.62 C3.38 4.49 5.68 7.24 8 10 C8.76 9.69 9.53 9.38 10.31 9.06 C12.19 8.32 14.09 7.64 16 7 C15.44 10.23 14.71 12.07 12 14 C9.62 14.56 9.62 14.56 7 14 C2.64 9.54 0 6.25 0 0 Z " fill="#C3F9E8" transform="translate(129,318)"/>
<path d="M0 0 C0.66 0.33 1.32 0.66 2 1 C2.12 8.75 2.12 8.75 1 11 C-1.1 10.89 -3.21 10.76 -5.31 10.62 C-6.48 10.56 -7.66 10.49 -8.86 10.41 C-12 10 -12 10 -15 8 C-9.85 7.91 -5.08 8.15 0 9 C0 8.34 0 7.68 0 7 C-2.64 6.67 -5.28 6.34 -8 6 C-8 5.67 -8 5.34 -8 5 C-6.02 5 -4.04 5 -2 5 C-1.67 4.01 -1.34 3.02 -1 2 C-0.67 1.34 -0.34 0.68 0 0 Z " fill="#FB9869" transform="translate(133,216)"/>
<path d="M0 0 C1.23 2.92 1.02 3.94 -0.19 6.94 C-4.68 14.52 -4.68 14.52 -8.25 15.81 C-8.83 15.87 -9.41 15.94 -10 16 C-10 15.01 -10 14.02 -10 13 C-10.93 12.85 -10.93 12.85 -11.88 12.69 C-14 12 -14 12 -16 9 C-15.67 8.01 -15.34 7.02 -15 6 C-14.65 6.66 -14.3 7.32 -13.94 8 C-12.05 10.35 -12.05 10.35 -8.5 10.56 C-4.91 10.38 -4.91 10.38 -3.19 7.81 C-2.8 6.88 -2.4 5.96 -2 5 C-1.61 4.07 -1.22 3.14 -0.81 2.19 C-0.54 1.47 -0.28 0.74 0 0 Z " fill="#F7F4B0" transform="translate(147,324)"/>
<path d="M0 0 C0.99 0 1.98 0 3 0 C3.33 5.94 3.66 11.88 4 18 C3.34 18 2.68 18 2 18 C-0.38 14.3 -0.21 11.07 -0.12 6.75 C-0.11 5.49 -0.09 4.22 -0.07 2.92 C-0.05 1.96 -0.02 0.99 0 0 Z " fill="#FFEA5B" transform="translate(130,279)"/>
<path d="M0 0 C0.33 0 0.66 0 1 0 C1.18 1.29 1.18 1.29 1.37 2.6 C2.24 8.54 3.14 14.28 5 20 C3.35 20 1.7 20 0 20 C0 13.4 0 6.8 0 0 Z " fill="#A0150A" transform="translate(143,202)"/>
<path d="M0 0 C0.33 0 0.66 0 1 0 C1.15 3.67 1.23 7.33 1.31 11 C1.35 12.03 1.4 13.06 1.44 14.12 C1.55 20.83 0.82 26 -4 31 C-4.66 31 -5.32 31 -6 31 C-4.12 25.25 -4.12 25.25 -3 23 C-2.34 23 -1.68 23 -1 23 C-0.67 15.41 -0.34 7.82 0 0 Z " fill="#FEF8D2" transform="translate(146,278)"/>
<path d="M0 0 C0.66 0.66 1.32 1.32 2 2 C3.32 1.34 4.64 0.68 6 0 C5.01 2.97 4.02 5.94 3 9 C3.66 9.66 4.32 10.32 5 11 C2.04 10.39 0.62 9.75 -2 8 C-1.34 5.36 -0.68 2.72 0 0 Z " fill="#FD7752" transform="translate(102,90)"/>
<path d="M0 0 C0.33 0.99 0.66 1.98 1 3 C-1.98 7.04 -5.4 10.5 -9 14 C-9.66 14.66 -10.32 15.32 -11 16 C-11.66 16 -12.32 16 -13 16 C-11.44 12.35 -9.18 9.79 -6.5 6.88 C-5.71 6.01 -4.91 5.14 -4.09 4.24 C-2.75 2.81 -1.39 1.39 0 0 Z " fill="#FA8E6E" transform="translate(129,45)"/>
<path d="M0 0 C0.66 0 1.32 0 2 0 C2.4 1.07 2.8 2.15 3.21 3.25 C3.74 4.69 4.28 6.13 4.81 7.56 C5.07 8.27 5.33 8.97 5.6 9.7 C7.28 14.19 9.08 18.61 11 23 C10.01 22.67 9.02 22.34 8 22 C6.83 19.62 5.86 17.35 4.94 14.88 C4.68 14.22 4.43 13.57 4.16 12.9 C2.52 8.65 1.19 4.39 0 0 Z " fill="#D1432E" transform="translate(106,244)"/>
<path d="M0 0 C0 4.04 -1.63 5.87 -3.81 9.25 C-6.71 13.75 -9.01 18.06 -11 23 C-11.66 23 -12.32 23 -13 23 C-12.5 17.8 -9.82 14.09 -7.06 9.81 C-6.61 9.09 -6.15 8.36 -5.68 7.62 C-2.31 2.31 -2.31 2.31 0 0 Z " fill="#FECFC1" transform="translate(123,54)"/>
<path d="M0 0 C0.99 0 1.98 0 3 0 C3.67 1.79 4.34 3.58 5 5.38 C5.56 6.87 5.56 6.87 6.12 8.4 C7 11 7 11 7 13 C5.11 12.77 5.11 12.77 3 12 C1.95 10.04 1.95 10.04 1.25 7.62 C1.01 6.83 0.77 6.04 0.52 5.23 C0 3 0 3 0 0 Z " fill="#6B0502" transform="translate(102,240)"/>
<path d="M0 0 C1.07 0.74 2.14 1.49 3.25 2.25 C8.47 5.55 14.12 7.25 20 9 C20 9.33 20 9.66 20 10 C13.34 10.72 8.63 8.49 3 5 C1.2 3.46 1.2 3.46 0 2 C0 1.34 0 0.68 0 0 Z " fill="#BF391D" transform="translate(97,212)"/>
<path d="M0 0 C0.99 0 1.98 0 3 0 C1.9 5.26 -0.07 7.24 -4.34 10.12 C-6 11 -6 11 -8 11 C-6.6 6.56 -4.4 4.13 -1 1 C-0.67 0.67 -0.34 0.34 0 0 Z " fill="#D2FBFC" transform="translate(156,159)"/>
<path d="M0 0 C0.66 0 1.32 0 2 0 C2.11 6.11 1.9 11.95 1 18 C0.34 18 -0.32 18 -1 18 C-1.1 11.89 -1.07 6.03 0 0 Z " fill="#FFBF8E" transform="translate(147,87)"/>
<path d="M0 0 C0.33 0 0.66 0 1 0 C1 5.94 1 11.88 1 18 C0.67 18 0.34 18 0 18 C0 16.35 0 14.7 0 13 C-0.66 13 -1.32 13 -2 13 C-2.17 8.08 -2.25 4.5 0 0 Z " fill="#F56E46" transform="translate(186,165)"/>
<path d="M0 0 C1.88 0.31 1.88 0.31 4 1 C4.66 1.99 5.32 2.98 6 4 C5.01 4 4.02 4 3 4 C3.34 4.8 3.34 4.8 3.69 5.61 C3.98 6.32 4.27 7.02 4.56 7.75 C4.85 8.45 5.14 9.14 5.44 9.86 C6.08 12.3 5.8 13.64 5 16 C3.54 13.2 2.38 10.43 1.38 7.44 C1.11 6.67 0.85 5.91 0.59 5.12 C0 3 0 3 0 0 Z " fill="#FC7851" transform="translate(139,40)"/>
<path d="M0 0 C1.79 0.02 1.79 0.02 3.62 0.04 C5.42 0.05 5.42 0.05 7.25 0.06 C8.18 0.07 9.1 0.09 10.06 0.1 C10.06 1.09 10.06 2.08 10.06 3.1 C5.54 3.17 1.47 3.2 -2.94 2.1 C-3.27 3.42 -3.6 4.74 -3.94 6.1 C-3.98 4.43 -3.98 2.76 -3.94 1.1 C-2.94 0.1 -2.94 0.1 0 0 Z " fill="#BA3107" transform="translate(144.94140625,272.90234375)"/>
<path d="M0 0 C0.66 0.33 1.32 0.66 2 1 C0.95 2.32 -0.11 3.63 -1.19 4.94 C-1.78 5.67 -2.37 6.4 -2.98 7.15 C-5.33 9.3 -6.88 9.66 -10 10 C-9.67 8.35 -9.34 6.7 -9 5 C-8.07 4.73 -7.14 4.46 -6.19 4.19 C-3.24 3.09 -1.94 2.38 0 0 Z " fill="#DDCCC4" transform="translate(122,127)"/>
<path d="M0 0 C3.96 0 7.92 0 12 0 C10.68 0.33 9.36 0.66 8 1 C8 2.98 8 4.96 8 7 C6.68 7 5.36 7 4 7 C4 5.02 4 3.04 4 1 C2.68 0.67 1.36 0.34 0 0 Z " fill="#FFF8BC" transform="translate(132,109)"/>
<path d="M0 0 C0.66 0.33 1.32 0.66 2 1 C2 3.97 2 6.94 2 10 C5.47 11.98 5.47 11.98 9 14 C8.01 14.33 7.02 14.66 6 15 C3.03 13.36 0.67 11.81 -1.5 9.19 C-2.27 5.81 -1.11 3.2 0 0 Z " fill="#C2361D" transform="translate(99,88)"/>
<path d="M0 0 C1.65 1.32 3.3 2.64 5 4 C5.66 3.67 6.32 3.34 7 3 C7 6.3 7 9.6 7 13 C6.34 13 5.68 13 5 13 C4.35 11.59 3.71 10.17 3.06 8.75 C2.7 7.96 2.34 7.17 1.97 6.36 C1.1 4.24 0.49 2.23 0 0 Z " fill="#FE704A" transform="translate(161,127)"/>
<path d="M0 0 C-0.99 1.65 -1.98 3.3 -3 5 C-6.27 4.44 -7.83 3.5 -10 1 C-6.22 -0.84 -4.05 -1.16 0 0 Z " fill="#57F3FA" transform="translate(133,165)"/>
<path d="M0 0 C0.99 0 1.98 0 3 0 C5.31 4.62 7.62 9.24 10 14 C9.01 14 8.02 14 7 14 C4.69 9.38 2.38 4.76 0 0 Z " fill="#EE4529" transform="translate(163,68)"/>
<path d="M0 0 C0.66 0 1.32 0 2 0 C2 0.66 2 1.32 2 2 C2.99 2.33 3.98 2.66 5 3 C3.68 3 2.36 3 1 3 C0.8 3.63 0.59 4.25 0.38 4.9 C0.11 5.72 -0.16 6.53 -0.44 7.38 C-0.7 8.19 -0.97 9 -1.25 9.84 C-2 12 -2 12 -3 14 C-3.66 14 -4.32 14 -5 14 C-3.46 9.28 -1.92 4.58 0 0 Z " fill="#CB4026" transform="translate(165,252)"/>
<path d="M0 0 C0.33 0 0.66 0 1 0 C2.26 5.07 3.27 9.73 3 15 C2.67 15 2.34 15 2 15 C1.67 16.65 1.34 18.3 1 20 C0.67 20 0.34 20 0 20 C0 13.4 0 6.8 0 0 Z " fill="#FDB87D" transform="translate(132,202)"/>
<path d="M0 0 C4.8 4.11 7.87 9.03 10 15 C9.67 15.99 9.34 16.98 9 18 C7.99 16.21 7 14.42 6 12.62 C5.44 11.63 4.89 10.63 4.31 9.6 C3 7 3 7 3 5 C2.01 4.67 1.02 4.34 0 4 C0 2.68 0 1.36 0 0 Z " fill="#BE4F32" transform="translate(188,168)"/>
<path d="M0 0 C0.33 0.66 0.66 1.32 1 2 C0.02 4.28 -1.01 6.39 -2.19 8.56 C-2.49 9.17 -2.8 9.77 -3.11 10.39 C-5.46 14.78 -5.46 14.78 -8.24 15.9 C-8.82 15.93 -9.4 15.97 -10 16 C-8.31 12.34 -6.13 9.09 -3.88 5.75 C-3.15 4.67 -2.43 3.59 -1.68 2.48 C-0.85 1.25 -0.85 1.25 0 0 Z " fill="#E5FCFC" transform="translate(144,151)"/>
<path d="M0 0 C2 3 2 3 2.94 6.06 C3.77 9.28 3.77 9.28 7 11 C0.71 13.43 0.71 13.43 -3 12 C-1.35 11.34 0.3 10.68 2 10 C1.48 8.91 0.97 7.81 0.44 6.69 C-1 3 -1 3 0 0 Z " fill="#C34203" transform="translate(102,243)"/>
<path d="M0 0 C0.33 0.66 0.66 1.32 1 2 C0.29 3.99 0.29 3.99 -0.81 6.31 C-1.19 7.11 -1.56 7.91 -1.94 8.73 C-2.29 9.48 -2.64 10.23 -3 11 C-3.68 12.66 -4.35 14.33 -5 16 C-5.33 16 -5.66 16 -6 16 C-6.49 8.59 -6.49 8.59 -4.12 5.75 C-3.07 4.88 -3.07 4.88 -2 4 C-0.76 1.87 -0.76 1.87 0 0 Z " fill="#FDFEFB" transform="translate(146,301)"/>
<path d="M0 0 C2 2 2 2 2.23 3.88 C2.22 4.62 2.21 5.37 2.2 6.13 C2.19 6.94 2.18 7.74 2.18 8.57 C2.16 9.42 2.14 10.26 2.12 11.12 C2.12 11.97 2.11 12.82 2.1 13.7 C2.07 15.8 2.04 17.9 2 20 C1.67 20 1.34 20 1 20 C0.94 19.19 0.88 18.38 0.82 17.55 C0.73 16.48 0.65 15.41 0.56 14.31 C0.48 13.26 0.4 12.2 0.32 11.11 C0.07 8.05 0.07 8.05 -0.6 5.29 C-1 3 -1 3 0 0 Z " fill="#FE7751" transform="translate(166,150)"/>
<path d="M0 0 C2.06 0.44 2.06 0.44 4 1 C3.34 1 2.68 1 2 1 C2.33 3.97 2.66 6.94 3 10 C1.68 9.67 0.36 9.34 -1 9 C-1.1 2.85 -1.1 2.85 -1 1 C-0.67 0.67 -0.34 0.34 0 0 Z " fill="#FEC091" transform="translate(144,109)"/>
<path d="M0 0 C0.33 0 0.66 0 1 0 C2.08 5.32 3.15 10.63 4 16 C3.01 15.67 2.02 15.34 1 15 C-0.44 12.12 -0.09 9.58 -0.06 6.38 C-0.05 5.19 -0.04 4 -0.04 2.77 C-0.02 1.86 -0.01 0.94 0 0 Z " fill="#FFEB69" transform="translate(120,321)"/>
<path d="M0 0 C2.12 0.38 2.12 0.38 4 1 C4.33 2.32 4.66 3.64 5 5 C4.67 4.34 4.34 3.68 4 3 C3.01 3 2.02 3 1 3 C1.66 4.32 2.32 5.64 3 7 C1.68 6.67 0.36 6.34 -1 6 C-1.62 4.12 -1.62 4.12 -2 2 C-1.34 1.34 -0.68 0.68 0 0 Z " fill="#AD2C15" transform="translate(120,96)"/>
<path d="M0 0 C2.12 0.38 2.12 0.38 4 1 C4.33 2.32 4.66 3.64 5 5 C4.67 4.34 4.34 3.68 4 3 C3.01 3 2.02 3 1 3 C1.66 4.32 2.32 5.64 3 7 C1.68 6.67 0.36 6.34 -1 6 C-1.62 4.12 -1.62 4.12 -2 2 C-1.34 1.34 -0.68 0.68 0 0 Z " fill="#AD2D15" transform="translate(154,96)"/>
<path d="M0 0 C2.47 0.5 2.47 0.5 5 1 C5 3.64 5 6.28 5 9 C4.67 8.34 4.34 7.68 4 7 C3.34 7 2.68 7 2 7 C0 4 0 4 0 0 Z " fill="#F7FFFA" transform="translate(131,307)"/>
<path d="M0 0 C0 0.33 0 0.66 0 1 C-5.05 2.04 -9.87 2.1 -15 2 C-15 1.34 -15 0.68 -15 0 C-9.65 -1 -5.38 -0.85 0 0 Z " fill="#CF3A24" transform="translate(163,222)"/>
<path d="M0 0 C0 2.95 -0.44 4.49 -1.5 7.19 C-1.78 7.9 -2.06 8.62 -2.34 9.36 C-2.56 9.9 -2.78 10.44 -3 11 C-3.33 9.68 -3.66 8.36 -4 7 C-4.99 7.33 -5.98 7.66 -7 8 C-7.33 7.34 -7.66 6.68 -8 6 C-7.05 5.38 -6.1 4.76 -5.12 4.12 C-2.06 2.18 -2.06 2.18 0 0 Z " fill="#F56B49" transform="translate(180,213)"/>
<path d="M0 0 C0.66 0.33 1.32 0.66 2 1 C0.25 4.88 0.25 4.88 -2 6 C-4.12 5.06 -4.12 5.06 -6 4 C-4.02 2.68 -2.04 1.36 0 0 Z M-8 5 C-7.34 5.33 -6.68 5.66 -6 6 C-6.99 6 -7.98 6 -9 6 C-8.67 5.67 -8.34 5.34 -8 5 Z " fill="#79F3F7" transform="translate(134,159)"/>
<path d="M0 0 C0.33 0.99 0.66 1.98 1 3 C0.04 4.82 0.04 4.82 -1.38 6.69 C-1.84 7.31 -2.3 7.93 -2.77 8.57 C-3.18 9.04 -3.58 9.52 -4 10 C-4.33 10 -4.66 10 -5 10 C-5 7 -5 4 -5 1 C-3.68 1.33 -2.36 1.66 -1 2 C-0.67 1.34 -0.34 0.68 0 0 Z " fill="#90C7C3" transform="translate(162,155)"/>
<path d="M0 0 C0.66 0.33 1.32 0.66 2 1 C0.76 1.87 -0.49 2.72 -1.75 3.56 C-2.79 4.28 -2.79 4.28 -3.86 5 C-6 6 -6 6 -8.27 5.65 C-8.84 5.44 -9.41 5.22 -10 5 C-10 4.34 -10 3.68 -10 3 C-8.91 2.88 -7.81 2.75 -6.69 2.62 C-2.93 2.25 -2.93 2.25 0 0 Z " fill="#CEFBFA" transform="translate(125,151)"/>
<path d="M0 0 C0.33 0.66 0.66 1.32 1 2 C1.66 2.33 2.32 2.66 3 3 C1.52 7.68 1.52 7.68 -1.12 9.31 C-2.05 9.65 -2.05 9.65 -3 10 C-2.49 6.28 -1.88 3.27 0 0 Z " fill="#FFAB87" transform="translate(109,75)"/>
<path d="M0 0 C0.99 0.33 1.98 0.66 3 1 C3 3.64 3 6.28 3 9 C2.01 9 1.02 9 0 9 C0 6.03 0 3.06 0 0 Z " fill="#FFB27B" transform="translate(128,109)"/>
<path d="M0 0 C0.33 0.66 0.66 1.32 1 2 C0 3.95 0 3.95 -1.44 6.12 C-1.91 6.85 -2.38 7.57 -2.87 8.32 C-3.24 8.87 -3.62 9.43 -4 10 C-4.99 9.34 -5.98 8.68 -7 8 C-6.21 6.85 -5.42 5.71 -4.62 4.56 C-4.18 3.92 -3.74 3.29 -3.29 2.63 C-2 1 -2 1 0 0 Z " fill="#F46946" transform="translate(117,60)"/>
<path d="M0 0 C-3.09 2.06 -4.47 2.39 -8.06 2.75 C-8.94 2.85 -9.82 2.95 -10.72 3.05 C-13 3 -13 3 -15 1 C-13.25 0.64 -11.5 0.28 -9.75 -0.06 C-8.29 -0.36 -8.29 -0.36 -6.8 -0.66 C-4.13 -0.98 -2.51 -0.86 0 0 Z " fill="#BE4027" transform="translate(163,105)"/>
<path d="M0 0 C0.99 0.5 0.99 0.5 2 1 C2 1.66 2 2.32 2 3 C3.32 2.67 4.64 2.34 6 2 C6 4.64 6 7.28 6 10 C5.67 9.01 5.34 8.02 5 7 C4.34 7 3.68 7 3 7 C3 6.34 3 5.68 3 5 C2.01 5 1.02 5 0 5 C0 3.35 0 1.7 0 0 Z " fill="#D6F3F2" transform="translate(131,311)"/>
<path d="M0 0 C1.49 0.99 1.49 0.99 3 2 C2.48 6.62 1.93 8.1 -1 12 C-0.67 8.04 -0.34 4.08 0 0 Z " fill="#FCED5A" transform="translate(141,295)"/>
<path d="M0 0 C1.26 3.78 0.48 5.03 -0.94 8.69 C-1.32 9.68 -1.7 10.68 -2.09 11.7 C-2.39 12.46 -2.69 13.22 -3 14 C-3.33 14 -3.66 14 -4 14 C-3.53 8.59 -2.76 4.79 0 0 Z " fill="#FEC8B6" transform="translate(135,42)"/>
<path d="M0 0 C3.63 1.32 7.26 2.64 11 4 C11 4.33 11 4.66 11 5 C8.03 5 5.06 5 2 5 C1.34 3.35 0.68 1.7 0 0 Z " fill="#9E1014" transform="translate(116,267)"/>
<path d="M0 0 C0.66 0.99 1.32 1.98 2 3 C1.67 3.66 1.34 4.32 1 5 C1.66 5.33 2.32 5.66 3 6 C2.53 6.43 2.05 6.87 1.56 7.31 C-0.24 9.02 -0.24 9.02 -1 12 C-1.66 12 -2.32 12 -3 12 C-2.01 8.04 -1.02 4.08 0 0 Z " fill="#BD3A04" transform="translate(179,235)"/>
<path d="M0 0 C3.63 1.21 3.95 2.11 5.75 5.38 C6.2 6.17 6.65 6.96 7.11 7.77 C8 10 8 10 7 13 C6.75 12.43 6.49 11.87 6.23 11.29 C5.71 10.18 5.71 10.18 5.19 9.06 C4.85 8.33 4.51 7.6 4.17 6.85 C3.06 4.67 3.06 4.67 0 4 C0 2.68 0 1.36 0 0 Z " fill="#950E07" transform="translate(188,172)"/>
<path d="M0 0 C1.98 0 3.96 0 6 0 C5.67 1.65 5.34 3.3 5 5 C2.53 4.01 2.53 4.01 0 3 C0 2.01 0 1.02 0 0 Z " fill="#FEE2B8" transform="translate(135,216)"/>
<path d="M0 0 C1.98 0 3.96 0 6 0 C5.67 1.65 5.34 3.3 5 5 C3.35 4.67 1.7 4.34 0 4 C0 2.68 0 1.36 0 0 Z " fill="#FFF3E0" transform="translate(135,212)"/>
<path d="M0 0 C0.66 0 1.32 0 2 0 C1.37 2.93 0.41 5.36 -1 8 C-1.99 8 -2.98 8 -4 8 C-2.88 5.03 -1.78 2.67 0 0 Z " fill="#F15031" transform="translate(110,69)"/>
<path d="M0 0 C0.99 0 1.98 0 3 0 C4.24 3.58 3.75 6.34 3 10 C2.67 10 2.34 10 2 10 C2 8.35 2 6.7 2 5 C1.34 5 0.68 5 0 5 C0 3.35 0 1.7 0 0 Z " fill="#FEF4AE" transform="translate(125,320)"/>
<path d="M0 0 C0.33 0.66 0.66 1.32 1 2 C-3 5.71 -5.37 7.6 -11 8 C-8 6 -8 6 -6 6 C-6 5.34 -6 4.68 -6 4 C-4.04 2.61 -2.04 1.27 0 0 Z " fill="#A9A58D" transform="translate(156,165)"/>
<path d="M0 0 C0.66 0 1.32 0 2 0 C2 1.32 2 2.64 2 4 C1.01 4.33 0.02 4.66 -1 5 C-2.37 6.29 -3.71 7.62 -5 9 C-3.76 5.56 -2.44 2.75 0 0 Z " fill="#F2C1A5" transform="translate(87,168)"/>
<path d="M0 0 C0.99 0.33 1.98 0.66 3 1 C1.35 2.32 -0.3 3.64 -2 5 C-3.32 4.34 -4.64 3.68 -6 3 C-4 2 -2 1 0 0 Z " fill="#99F7F9" transform="translate(124,159)"/>
<path d="M0 0 C2.59 2.59 2.7 4.4 3 8 C2.34 8.66 1.68 9.32 1 10 C-0.84 6.22 -1.16 4.05 0 0 Z " fill="#F44428" transform="translate(178,96)"/>
<path d="M0 0 C2.33 3.63 2.16 6.77 2 11 C1.01 10.67 0.02 10.34 -1 10 C-1.12 2.25 -1.12 2.25 0 0 Z " fill="#FFB785" transform="translate(131,94)"/>
<path d="M0 0 C0.99 0 1.98 0 3 0 C3 0.99 3 1.98 3 3 C3.99 3.33 4.98 3.66 6 4 C6 4.33 6 4.66 6 5 C3.03 5 0.06 5 -3 5 C-2 4 -1 3 0 2 C0 1.34 0 0.68 0 0 Z " fill="#F2906A" transform="translate(121,99)"/>
<path d="M0 0 C0.33 0.66 0.66 1.32 1 2 C-0.31 4.62 -0.31 4.62 -2 7 C-2.66 7 -3.32 7 -4 7 C-4 6.34 -4 5.68 -4 5 C-4.66 4.67 -5.32 4.34 -6 4 C-4.02 2.68 -2.04 1.36 0 0 Z " fill="#9C0E12" transform="translate(160,266)"/>
<path d="M0 0 C2 3 2 3 1.81 6.06 C1 9 1 9 -2 11 C-1.34 7.37 -0.68 3.74 0 0 Z " fill="#F47A53" transform="translate(180,202)"/>
<path d="M0 0 C0.66 0 1.32 0 2 0 C2.66 2.64 3.32 5.28 4 8 C3.01 8 2.02 8 1 8 C0.4 5.24 0 2.84 0 0 Z " fill="#F5EDE9" transform="translate(162,132)"/>
<path d="M0 0 C0.99 0.5 0.99 0.5 2 1 C2.41 3.32 2.74 5.66 3 8 C2.01 7.67 1.02 7.34 0 7 C0 4.69 0 2.38 0 0 Z " fill="#EAF7C9" transform="translate(129,322)"/>
<path d="M0 0 C2.09 3.4 2.18 6.05 2 10 C1.34 10 0.68 10 0 10 C-0.75 6.34 -1.24 3.58 0 0 Z " fill="#EE6343" transform="translate(96,205)"/>
<path d="M0 0 C1.32 0.33 2.64 0.66 4 1 C4.33 2.98 4.66 4.96 5 7 C4.01 6.67 3.02 6.34 2 6 C0.81 2.94 0.81 2.94 0 0 Z " fill="#8CF5E7" transform="translate(157,136)"/>
<path d="M0 0 C2.92 1.07 4.78 1.78 7 4 C6.01 4.33 5.02 4.66 4 5 C3.34 5.66 2.68 6.32 2 7 C1.34 4.69 0.68 2.38 0 0 Z " fill="#CEF8EF" transform="translate(148,129)"/>
<path d="M0 0 C0.99 0.33 1.98 0.66 3 1 C1.19 4 1.19 4 -1 7 C-1.99 7 -2.98 7 -4 7 C-2.8 4.51 -1.55 2.32 0 0 Z " fill="#F6815A" transform="translate(120,54)"/>
<path d="M0 0 C0.33 0 0.66 0 1 0 C1 1.98 1 3.96 1 6 C-0.98 6.99 -0.98 6.99 -3 8 C-1.12 2.25 -1.12 2.25 0 0 Z " fill="#FEF7B4" transform="translate(143,301)"/>
<path d="M0 0 C2.62 0.38 2.62 0.38 5 1 C4.01 2.49 4.01 2.49 3 4 C0.53 3.01 0.53 3.01 -2 2 C-1.34 1.34 -0.68 0.68 0 0 Z " fill="#C34715" transform="translate(149,275)"/>
<path d="M0 0 C0.33 1.32 0.66 2.64 1 4 C2.65 3.67 4.3 3.34 6 3 C5.67 3.99 5.34 4.98 5 6 C3.02 6 1.04 6 -1 6 C-0.67 4.02 -0.34 2.04 0 0 Z " fill="#7D0E08" transform="translate(168,248)"/>
<path d="M0 0 C0 0.33 0 0.66 0 1 C-6.62 1.25 -6.62 1.25 -10 -1 C-6.06 -2.31 -3.88 -1.24 0 0 Z " fill="#DB3D23" transform="translate(117,221)"/>
<path d="M0 0 C0.33 0 0.66 0 1 0 C1.37 5.54 1.37 5.54 -0.5 7.88 C-1 8.25 -1.49 8.62 -2 9 C-1.12 1.12 -1.12 1.12 0 0 Z " fill="#72130C" transform="translate(185,193)"/>
<path d="M0 0 C0.66 0 1.32 0 2 0 C2.69 2.81 2.69 2.81 3 6 C2.01 6.99 1.02 7.98 0 9 C0 6.03 0 3.06 0 0 Z " fill="#F47047" transform="translate(89,172)"/>
<path d="M0 0 C0.99 0 1.98 0 3 0 C4.75 2.31 4.75 2.31 6 5 C5.67 5.99 5.34 6.98 5 8 C2.99 5.44 1.37 2.95 0 0 Z " fill="#EF5738" transform="translate(163,68)"/>
<path d="M0 0 C0.66 1.32 1.32 2.64 2 4 C1.4 4.29 0.8 4.58 0.19 4.88 C-2.19 6.05 -2.19 6.05 -5 8 C-3.63 5.05 -2.01 2.56 0 0 Z " fill="#FB5435" transform="translate(129,48)"/>
</svg>
